<svg width="14" height="8" viewBox="0 0 14 8" fill="none" xmlns="http://www.w3.org/2000/svg">
<path fill-rule="evenodd" clip-rule="evenodd" d="M5.93817 7.37616C6.12569 7.56363 6.38 7.66895 6.64516 7.66895C6.91033 7.66895 7.16464 7.56363 7.35216 7.37616L13.0092 1.71916C13.1047 1.62691 13.1809 1.51657 13.2333 1.39456C13.2857 1.27256 13.3133 1.14134 13.3144 1.00856C13.3156 0.875781 13.2903 0.744102 13.24 0.621205C13.1897 0.498309 13.1155 0.386656 13.0216 0.292764C12.9277 0.198871 12.816 0.124618 12.6931 0.074337C12.5702 0.024056 12.4385 -0.00124546 12.3058 -9.15086e-05C12.173 0.00106244 12.0418 0.0286484 11.9198 0.0810576C11.7978 0.133467 11.6874 0.209649 11.5952 0.305159L6.64516 5.25516L1.69516 0.305159C1.50656 0.123001 1.25396 0.0222068 0.991764 0.0244852C0.729567 0.0267635 0.478754 0.131932 0.293346 0.31734C0.107938 0.502749 0.00276821 0.753562 0.000489898 1.01576C-0.00178842 1.27795 0.0990054 1.53056 0.281164 1.71916L5.93817 7.37616Z" fill="#F9FBFC"/>
</svg>
