<svg width="7" height="13" viewBox="0 0 7 13" fill="none" xmlns="http://www.w3.org/2000/svg">
<path fill-rule="evenodd" clip-rule="evenodd" d="M6.73276 6.73266C6.90387 6.56149 7 6.32937 7 6.08734C7 5.84531 6.90387 5.61319 6.73276 5.44202L1.56929 0.278555C1.48509 0.191378 1.38438 0.121841 1.27302 0.0740042C1.16166 0.0261679 1.04188 0.00098896 0.920689 -6.38962e-05C0.799493 -0.00111675 0.679302 0.0219765 0.567128 0.0678711C0.454953 0.113766 0.353042 0.181541 0.267341 0.267242C0.181639 0.352943 0.113864 0.454854 0.0679701 0.567028C0.0220759 0.679202 -0.00101819 0.799395 3.4954e-05 0.920589C0.0010881 1.04179 0.0262677 1.16156 0.0741043 1.27292C0.121941 1.38428 0.191476 1.48499 0.278654 1.56919L4.7968 6.08734L0.278654 10.6055C0.112388 10.7776 0.020387 11.0082 0.0224666 11.2475C0.0245462 11.4868 0.12054 11.7158 0.289772 11.885C0.459005 12.0542 0.687936 12.1502 0.927258 12.1523C1.16658 12.1544 1.39714 12.0624 1.56929 11.8961L6.73276 6.73266Z" fill="#F9FBFC"/>
</svg>
