<svg width="19" height="16" viewBox="0 0 19 16" fill="none" xmlns="http://www.w3.org/2000/svg">
<path d="M9.76161 9.2798C10.3994 9.34356 10.9903 9.63567 11.42 10.0996C11.8497 10.5636 12.0875 11.1664 12.0876 11.7915C12.0876 13.0894 11.276 14.1634 10.1847 14.8721C9.08816 15.5859 7.62038 16 6.04381 16C4.46724 16 2.99945 15.5859 1.90294 14.8721C0.80987 14.1651 0 13.0894 0 11.7915C0 11.1218 0.272896 10.4795 0.758653 10.0059C1.24441 9.53237 1.90324 9.26633 2.5902 9.26633H9.49741L9.76161 9.2798ZM16.4098 9.26633C17.0968 9.26633 17.7556 9.53237 18.2413 10.0059C18.7271 10.4795 19 11.1218 19 11.7915C19 12.9614 18.254 13.8301 17.3026 14.3637C16.3563 14.894 15.1181 15.1583 13.8196 15.1583C13.3821 15.1572 12.9556 15.1257 12.54 15.064C13.2877 14.2021 13.8161 13.1012 13.8161 11.7915C13.8141 10.8801 13.5087 9.99397 12.9458 9.26633H16.4098ZM6.04726 0.000806301C6.56495 -0.00960156 7.07957 0.0808416 7.56094 0.266834C8.04231 0.452827 8.48075 0.730627 8.85057 1.08395C9.22039 1.43727 9.51413 1.85901 9.71459 2.32444C9.91505 2.78987 10.0182 3.28963 10.018 3.79442C10.0177 4.29921 9.91414 4.79888 9.71325 5.26414C9.51237 5.7294 9.21824 6.15088 8.8481 6.50388C8.47797 6.85689 8.03927 7.13431 7.55773 7.31988C7.07619 7.50546 6.56149 7.59546 6.04381 7.5846C5.02641 7.5637 4.0579 7.15502 3.34595 6.44617C2.634 5.73733 2.23528 4.78476 2.23528 3.7927C2.23528 2.80064 2.634 1.84807 3.34595 1.13923C4.0579 0.430389 5.02641 0.0217057 6.04381 0.000806301M14.2461 1.68591C14.643 1.68591 15.0359 1.76211 15.4025 1.91016C15.7692 2.05821 16.1023 2.2752 16.3829 2.54876C16.6635 2.82232 16.8861 3.14709 17.038 3.50451C17.1899 3.86193 17.268 4.24502 17.268 4.63189C17.268 5.01876 17.1899 5.40184 17.038 5.75926C16.8861 6.11669 16.6635 6.44145 16.3829 6.71501C16.1023 6.98857 15.7692 7.20557 15.4025 7.35362C15.0359 7.50167 14.643 7.57787 14.2461 7.57787C13.4447 7.57787 12.676 7.26749 12.1093 6.71501C11.5426 6.16253 11.2242 5.41321 11.2242 4.63189C11.2242 3.85056 11.5426 3.10124 12.1093 2.54876C12.676 1.99629 13.4447 1.68591 14.2461 1.68591Z" fill="#F9FBFC"/>
</svg>
