<svg width="17" height="20" viewBox="0 0 17 20" fill="none" xmlns="http://www.w3.org/2000/svg">
<path d="M1 10.633H3.00038C3.055 10.6312 3.1094 10.6409 3.16002 10.6615C3.21064 10.6821 3.25633 10.7132 3.2941 10.7527C3.33187 10.7922 3.36087 10.8393 3.37919 10.8908C3.39752 10.9422 3.40477 10.997 3.40045 11.0515V18.5808C3.40491 18.6353 3.39775 18.6901 3.37946 18.7416C3.36118 18.7932 3.33217 18.8402 3.29436 18.8797C3.25655 18.9191 3.2108 18.9501 3.16012 18.9706C3.10944 18.9911 3.055 19.0006 3.00038 18.9985H1" stroke="#37CC70" stroke-width="2" stroke-linecap="round" stroke-linejoin="round"/>
<path d="M6.72182 8.8686L5.18393 10.7833C5.08292 10.9092 4.95591 11.0118 4.8116 11.084C4.66728 11.1562 4.50906 11.1964 4.34777 11.2018H3.40039M3.40039 16.8268C5.11591 18.127 6.68101 19 7.6916 19H12.7109C13.3191 19 13.7015 18.9568 13.9656 18.1639C14.3689 16.1395 14.6481 14.0927 14.8025 12.0348C14.8025 11.6171 14.3841 11.1986 13.5479 11.1986H8.80141M6.90745 10.1656L5.66882 1.49849C5.66 1.43657 5.66457 1.37348 5.68224 1.31349C5.6999 1.25349 5.73024 1.19799 5.7712 1.15073C5.81217 1.10347 5.8628 1.06556 5.91968 1.03956C5.97656 1.01355 6.03836 1.00006 6.1009 1H12.1452" stroke="#37CC70" stroke-width="2" stroke-linecap="round" stroke-linejoin="round"/>
<path d="M9.53597 11.2046L8.80304 3.8761C8.79707 3.82011 8.80298 3.76349 8.8204 3.70995C8.83781 3.6564 8.86633 3.60714 8.9041 3.56537C8.94186 3.52361 8.98801 3.49028 9.03954 3.46758C9.09107 3.44488 9.14681 3.4333 9.20311 3.43362H14.7241C14.7823 3.43293 14.8399 3.44492 14.8929 3.46876C14.946 3.4926 14.9932 3.52772 15.0313 3.57167C15.0694 3.61561 15.0974 3.66734 15.1135 3.72323C15.1295 3.77912 15.1332 3.83785 15.1242 3.8953L14.02 11.2566" stroke="#37CC70" stroke-width="2" stroke-linecap="round" stroke-linejoin="round"/>
<path d="M11.8215 7.89698C11.742 7.89698 11.6656 7.86537 11.6094 7.8091C11.5531 7.75283 11.5215 7.67651 11.5215 7.59693C11.5215 7.51735 11.5531 7.44103 11.6094 7.38476C11.6656 7.32849 11.742 7.29688 11.8215 7.29688M11.8215 7.89698C11.9011 7.89698 11.9774 7.86537 12.0337 7.8091C12.09 7.75283 12.1216 7.67651 12.1216 7.59693C12.1216 7.51735 12.09 7.44103 12.0337 7.38476C11.9774 7.32849 11.9011 7.29688 11.8215 7.29688" stroke="#37CC70" stroke-width="2"/>
</svg>
