<svg width="20" height="20" viewBox="0 0 20 20" fill="none" xmlns="http://www.w3.org/2000/svg">
<path d="M1 11.8V19M1 17.8H14.2C14.2 17.1635 13.9471 16.553 13.497 16.1029C13.0469 15.6529 12.4365 15.4 11.8 15.4H8.79999M8.79999 15.4C8.79999 14.7635 8.54713 14.153 8.09704 13.7029C7.64696 13.2529 7.03651 13 6.39999 13H1M8.79999 15.4H5.79999M6.79999 3.6H7.99999M15.6 7.6H16.8M5.70399 1H17.896C18.1916 1.00422 18.4736 1.12517 18.6804 1.33649C18.8872 1.5478 19.0021 1.83233 19 2.128V9.072C19.0021 9.36767 18.8872 9.6522 18.6804 9.86351C18.4736 10.0748 18.1916 10.1958 17.896 10.2H5.70399C5.40834 10.1958 5.12635 10.0748 4.91954 9.86351C4.71272 9.6522 4.59785 9.36767 4.59999 9.072V2.128C4.59785 1.83233 4.71272 1.5478 4.91954 1.33649C5.12635 1.12517 5.40834 1.00422 5.70399 1ZM9.99999 5.6C9.99999 6.07739 10.1896 6.53523 10.5272 6.87279C10.8648 7.21036 11.3226 7.4 11.8 7.4C12.2774 7.4 12.7352 7.21036 13.0728 6.87279C13.4103 6.53523 13.6 6.07739 13.6 5.6C13.6 5.12261 13.4103 4.66477 13.0728 4.32721C12.7352 3.98964 12.2774 3.8 11.8 3.8C11.3226 3.8 10.8648 3.98964 10.5272 4.32721C10.1896 4.66477 9.99999 5.12261 9.99999 5.6Z" stroke="#E4B42F" stroke-width="2" stroke-linecap="round" stroke-linejoin="round"/>
</svg>
