<svg width="21" height="19" viewBox="0 0 21 19" fill="none" xmlns="http://www.w3.org/2000/svg">
<path d="M4.2 16.3387L1.785 18.6874C1.4525 19.0107 1.0717 19.0833 0.642602 18.9049C0.213502 18.7265 -0.00069829 18.4072 1.7101e-06 17.947V2.04234C1.7101e-06 1.48069 0.205802 1.00006 0.617402 0.600447C1.029 0.20083 1.5232 0.000680779 2.1 0H18.9C19.4775 0 19.972 0.200149 20.3836 0.600447C20.7952 1.00074 21.0007 1.48137 21 2.04234V14.2964C21 14.858 20.7945 15.339 20.3836 15.7393C19.9727 16.1396 19.4782 16.3394 18.9 16.3387H4.2ZM5.25 12.254H11.55C11.8475 12.254 12.0971 12.156 12.2987 11.9599C12.5002 11.7639 12.6007 11.5215 12.6 11.2329C12.5993 10.9442 12.4985 10.7018 12.2976 10.5058C12.0967 10.3097 11.8475 10.2117 11.55 10.2117H5.25C4.9525 10.2117 4.7033 10.3097 4.5024 10.5058C4.3015 10.7018 4.2007 10.9442 4.2 11.2329C4.1993 11.5215 4.3001 11.7642 4.5024 11.9609C4.7047 12.1577 4.9539 12.2554 5.25 12.254ZM5.25 9.19051H15.75C16.0475 9.19051 16.297 9.09248 16.4986 8.89642C16.7002 8.70035 16.8007 8.458 16.8 8.16935C16.7993 7.8807 16.6985 7.63834 16.4976 7.44227C16.2967 7.24621 16.0475 7.14818 15.75 7.14818H5.25C4.9525 7.14818 4.7033 7.24621 4.5024 7.44227C4.3015 7.63834 4.2007 7.8807 4.2 8.16935C4.1993 8.458 4.3001 8.70069 4.5024 8.89744C4.7047 9.09418 4.9539 9.19188 5.25 9.19051ZM5.25 6.12701H15.75C16.0475 6.12701 16.297 6.02898 16.4986 5.83291C16.7002 5.63685 16.8007 5.39449 16.8 5.10584C16.7993 4.81719 16.6985 4.57483 16.4976 4.37877C16.2967 4.18271 16.0475 4.08467 15.75 4.08467H5.25C4.9525 4.08467 4.7033 4.18271 4.5024 4.37877C4.3015 4.57483 4.2007 4.81719 4.2 5.10584C4.1993 5.39449 4.3001 5.63719 4.5024 5.83393C4.7047 6.03068 4.9539 6.12837 5.25 6.12701Z" fill="#F9FBFC"/>
</svg>
