<svg width="21" height="22" viewBox="0 0 21 22" fill="none" xmlns="http://www.w3.org/2000/svg">
<path d="M14.0439 8.06152L18.5969 5.78552C18.7494 5.70936 18.9187 5.6734 19.0889 5.68107C19.2592 5.68874 19.4246 5.73977 19.5696 5.82933C19.7145 5.91889 19.8342 6.044 19.9172 6.19279C20.0002 6.34159 20.0439 6.50913 20.0439 6.67952V13.4435C20.0439 13.6139 20.0002 13.7815 19.9172 13.9303C19.8342 14.079 19.7145 14.2042 19.5696 14.2937C19.4246 14.3833 19.2592 14.4343 19.0889 14.442C18.9187 14.4496 18.7494 14.4137 18.5969 14.3375L14.0439 12.0615M4.04395 16.0615H12.0439C12.5744 16.0615 13.0831 15.8508 13.4582 15.4757C13.8332 15.1007 14.0439 14.592 14.0439 14.0615V6.06152C14.0439 5.53109 13.8332 5.02238 13.4582 4.64731C13.0831 4.27224 12.5744 4.06152 12.0439 4.06152H4.04395C3.51351 4.06152 3.0048 4.27224 2.62973 4.64731C2.25466 5.02238 2.04395 5.53109 2.04395 6.06152V14.0615C2.04395 14.592 2.25466 15.1007 2.62973 15.4757C3.0048 15.8508 3.51351 16.0615 4.04395 16.0615Z" stroke="#F9FBFC" stroke-width="1.5" stroke-linecap="round" stroke-linejoin="round"/>
<mask id="path-2-outside-1_488_838" maskUnits="userSpaceOnUse" x="-0.348084" y="-0.341328" width="21.5765" height="22.2588" fill="black">
<rect fill="white" x="-0.348084" y="-0.341328" width="21.5765" height="22.2588"/>
<path d="M1.04395 1.09473L2.10461 0.000521312L20.4894 18.9667L19.4287 20.061L1.04395 1.09473Z"/>
</mask>
<path d="M1.04395 1.09473L2.10461 0.000521312L20.4894 18.9667L19.4287 20.061L1.04395 1.09473Z" fill="#F9FBFC"/>
<path d="M19.4287 20.061L20.4727 18.9839L2.08797 0.0176854L1.04395 1.09473L-7.69198e-05 2.17177L18.3847 21.138L19.4287 20.061Z" fill="#2A2D34" mask="url(#path-2-outside-1_488_838)"/>
</svg>
