<svg width="37" height="38" viewBox="0 0 37 38" fill="none" xmlns="http://www.w3.org/2000/svg">
<path d="M26.6173 5.26009C27.4021 3.97062 27.0327 2.26777 25.6624 1.63456C23.1461 0.471757 20.3983 -0.0885666 17.6236 0.0113649C13.9519 0.143605 10.4039 1.42589 7.44357 3.69057C4.48325 5.95524 2.24836 9.09692 1.03109 12.7048C-0.186173 16.3127 -0.329167 20.219 0.62081 23.9129C1.57079 27.6067 3.56952 30.9163 6.35569 33.4088C9.14186 35.9014 12.5858 37.4609 16.2372 37.8836C19.8887 38.3062 23.5777 37.5723 26.8219 35.7777C29.3021 34.4058 31.4341 32.4628 33.0632 30.1107C33.9078 28.8913 33.3879 27.2611 32.0859 26.5504C30.7219 25.8058 29.0313 26.3636 28.055 27.5727C27.0046 28.8734 25.7193 29.96 24.2627 30.7657C21.9876 32.0242 19.4006 32.5389 16.84 32.2425C14.2793 31.9461 11.8642 30.8524 9.91035 29.1045C7.95649 27.3565 6.55484 25.0356 5.88865 22.4452C5.22246 19.8548 5.32274 17.1155 6.17637 14.5854C7.03 12.0553 8.59726 9.85211 10.6732 8.26396C12.7492 6.67581 15.2373 5.77658 17.8122 5.68385C19.4199 5.62595 21.0147 5.88413 22.5157 6.43554C24.007 6.98337 25.7913 6.61724 26.6173 5.26009Z" fill="#525FE1"/>
<ellipse cx="32.2906" cy="9.06306" rx="3.47712" ry="3.47712" fill="#FFD057"/>
</svg>
