<svg width="17" height="18" viewBox="0 0 17 18" fill="none" xmlns="http://www.w3.org/2000/svg">
<path d="M15.75 4.16667C16.1642 4.16667 16.5 3.83088 16.5 3.41667C16.5 3.00245 16.1642 2.66667 15.75 2.66667V3.41667V4.16667ZM0.75 2.66667C0.335786 2.66667 0 3.00245 0 3.41667C0 3.83088 0.335786 4.16667 0.75 4.16667V3.41667V2.66667ZM15.0275 5.68841C15.0548 5.2751 14.742 4.91788 14.3286 4.89053C13.9153 4.86317 13.5581 5.17606 13.5308 5.58937L14.2791 5.63889L15.0275 5.68841ZM13.8732 11.7722L14.6216 11.8218L14.6216 11.8217L13.8732 11.7722ZM3.62382 16.03L4.13848 15.4844L4.13814 15.4841L3.62382 16.03ZM2.62676 11.7722L3.37514 11.723L3.37513 11.7227L2.62676 11.7722ZM2.96925 5.58937C2.94189 5.17606 2.58467 4.86317 2.17136 4.89053C1.75805 4.91788 1.44517 5.2751 1.47252 5.68841L2.22088 5.63889L2.96925 5.58937ZM6.79045 7.78703C6.74953 7.37484 6.38222 7.07386 5.97003 7.11478C5.55785 7.15569 5.25687 7.52301 5.29779 7.9352L6.04412 7.86111L6.79045 7.78703ZM5.73896 12.3796C5.77988 12.7918 6.14719 13.0928 6.55938 13.0519C6.97157 13.011 7.27254 12.6437 7.23163 12.2315L6.48529 12.3056L5.73896 12.3796ZM11.2022 7.9352C11.2431 7.52301 10.9422 7.15569 10.53 7.11478C10.1178 7.07386 9.75047 7.37484 9.70955 7.78703L10.4559 7.86111L11.2022 7.9352ZM9.26837 12.2315C9.22746 12.6437 9.52843 13.011 9.94062 13.0519C10.3528 13.0928 10.7201 12.7918 10.761 12.3796L10.0147 12.3056L9.26837 12.2315ZM3.49412 3.41667V4.16667H3.50377L3.51342 4.16642L3.49412 3.41667ZM5.10882 2.24333L5.81483 2.49643L5.81832 2.4867L5.82154 2.47687L5.10882 2.24333ZM5.13882 2.15178L4.42679 1.91618L4.42611 1.91824L5.13882 2.15178ZM5.22441 1.89311L5.93645 2.12871L5.22441 1.89311ZM5.38324 1.46733L4.71711 1.1227L4.71648 1.12392L5.38324 1.46733ZM6.34853 0.766889L6.46747 1.5074L6.46962 1.50705L6.34853 0.766889ZM10.1515 0.766889L10.0304 1.50705L10.0325 1.5074L10.1515 0.766889ZM11.1168 1.46733L11.7835 1.12392L11.7829 1.1227L11.1168 1.46733ZM11.2756 1.89311L10.5636 2.12871L11.2756 1.89311ZM11.3612 2.15178L12.0798 1.93719L12.0767 1.92663L12.0732 1.91618L11.3612 2.15178ZM15.75 3.41667V2.66667H0.75V3.41667V4.16667H15.75V3.41667ZM14.2791 5.63889L13.5308 5.58937L13.1249 11.7227L13.8732 11.7722L14.6216 11.8217L15.0275 5.68841L14.2791 5.63889ZM13.8732 11.7722L13.1249 11.7227C13.0454 12.9226 12.9893 13.7499 12.8666 14.3707C12.748 14.9708 12.5851 15.2738 12.3619 15.4841L12.8762 16.03L13.3905 16.5759C13.9305 16.0671 14.1881 15.4207 14.3381 14.6615C14.4841 13.923 14.5449 12.981 14.6216 11.8218L13.8732 11.7722ZM12.8762 16.03L12.3619 15.4841C12.1391 15.694 11.8297 15.8369 11.2296 15.9161C10.6076 15.9983 9.78543 16 8.59147 16V16.75V17.5C9.74458 17.5 10.6831 17.5013 11.4259 17.4032C12.1906 17.3022 12.85 17.0851 13.3905 16.5759L12.8762 16.03ZM8.59147 16.75V16H7.90853V16.75V17.5H8.59147V16.75ZM7.90853 16.75V16C6.7144 16 5.8923 15.9985 5.27031 15.9164C4.67025 15.8373 4.36111 15.6945 4.13848 15.4844L3.62382 16.03L3.10917 16.5756C3.64977 17.0855 4.30945 17.3027 5.07417 17.4036C5.81697 17.5015 6.7556 17.5 7.90853 17.5V16.75ZM3.62382 16.03L4.13814 15.4841C3.91477 15.2737 3.75175 14.9706 3.63306 14.3706C3.51028 13.7499 3.45412 12.9226 3.37514 11.723L2.62676 11.7722L1.87838 11.8215C1.95471 12.9809 2.01545 13.923 2.16157 14.6617C2.31178 15.421 2.56964 16.0672 3.10951 16.5759L3.62382 16.03ZM2.62676 11.7722L3.37513 11.7227L2.96925 5.58937L2.22088 5.63889L1.47252 5.68841L1.8784 11.8217L2.62676 11.7722ZM6.04412 7.86111L5.29779 7.9352L5.73896 12.3796L6.48529 12.3056L7.23163 12.2315L6.79045 7.78703L6.04412 7.86111ZM10.4559 7.86111L9.70955 7.78703L9.26837 12.2315L10.0147 12.3056L10.761 12.3796L11.2022 7.9352L10.4559 7.86111ZM3.39706 3.41667V4.16667H3.49412V3.41667V2.66667H3.39706V3.41667ZM3.49412 3.41667L3.51342 4.16642C4.02069 4.15336 4.51172 3.98637 4.92229 3.68803L4.4814 3.0813L4.04052 2.47457C3.87491 2.59491 3.67774 2.66169 3.47482 2.66692L3.49412 3.41667ZM4.4814 3.0813L4.92229 3.68803C5.33279 3.38974 5.64354 2.97422 5.81483 2.49643L5.10882 2.24333L4.40282 1.99024C4.33279 2.18558 4.2062 2.35418 4.04052 2.47457L4.4814 3.0813ZM5.10882 2.24333L5.82154 2.47687L5.85154 2.38532L5.13882 2.15178L4.42611 1.91824L4.39611 2.0098L5.10882 2.24333ZM5.13882 2.15178L5.85086 2.38738L5.93645 2.12871L5.22441 1.89311L4.51238 1.65751L4.42679 1.91618L5.13882 2.15178ZM5.22441 1.89311L5.93645 2.12871C6.01678 1.88594 6.03447 1.84089 6.04999 1.81075L5.38324 1.46733L4.71648 1.12392C4.63494 1.28222 4.57852 1.45762 4.51238 1.65751L5.22441 1.89311ZM5.38324 1.46733L6.04936 1.81197C6.09129 1.73093 6.15119 1.66144 6.22384 1.60872L5.78336 1.0017L5.34289 0.39467C5.0803 0.58521 4.86614 0.834652 4.71711 1.1227L5.38324 1.46733ZM5.78336 1.0017L6.22384 1.60872C6.29646 1.55602 6.37992 1.52146 6.46747 1.5074L6.34853 0.766889L6.22959 0.0263796C5.90915 0.0778481 5.6055 0.204112 5.34289 0.39467L5.78336 1.0017ZM6.34853 0.766889L6.46962 1.50705C6.49811 1.50239 6.54034 1.5 6.79853 1.5V0.75V0C6.59436 0 6.40542 -0.00238866 6.22744 0.0267283L6.34853 0.766889ZM6.79853 0.75V1.5H9.70147V0.75V0H6.79853V0.75ZM9.70147 0.75V1.5C9.95966 1.5 10.0019 1.50239 10.0304 1.50705L10.1515 0.766889L10.2726 0.0267283C10.0946 -0.00238866 9.90564 0 9.70147 0V0.75ZM10.1515 0.766889L10.0325 1.5074C10.1201 1.52146 10.2035 1.55602 10.2762 1.60872L10.7166 1.0017L11.1571 0.39467C10.8945 0.204112 10.5909 0.0778481 10.2704 0.0263796L10.1515 0.766889ZM10.7166 1.0017L10.2762 1.60872C10.3488 1.66144 10.4087 1.73093 10.4506 1.81197L11.1168 1.46733L11.7829 1.1227C11.6339 0.834652 11.4197 0.58521 11.1571 0.39467L10.7166 1.0017ZM11.1168 1.46733L10.45 1.81075C10.4655 1.84089 10.4832 1.88594 10.5636 2.12871L11.2756 1.89311L11.9876 1.65751C11.9215 1.45762 11.8651 1.28222 11.7835 1.12392L11.1168 1.46733ZM11.2756 1.89311L10.5636 2.12871L10.6491 2.38738L11.3612 2.15178L12.0732 1.91618L11.9876 1.65751L11.2756 1.89311ZM11.3612 2.15178L10.6425 2.36637C10.8012 2.89782 11.1298 3.36282 11.5784 3.68865L12.0191 3.08179L12.4598 2.47493C12.2787 2.34342 12.1448 2.15467 12.0798 1.93719L11.3612 2.15178ZM12.0191 3.08179L11.5784 3.68865C12.0272 4.01455 12.5708 4.18276 13.1251 4.16634L13.1029 3.41667L13.0807 2.667C12.859 2.67356 12.6408 2.60637 12.4598 2.47493L12.0191 3.08179Z" fill="#525FE1"/>
</svg>
