<svg width="14" height="14" viewBox="0 0 14 14" fill="none" xmlns="http://www.w3.org/2000/svg">
<path fill-rule="evenodd" clip-rule="evenodd" d="M7.61504 0.264162C7.53352 0.180554 7.43609 0.114109 7.32849 0.0687407C7.2209 0.0233727 7.10531 0 6.98854 0C6.87177 0 6.75618 0.0233727 6.64858 0.0687407C6.54098 0.114109 6.44355 0.180554 6.36204 0.264162L5.80379 0.837287C5.69391 0.950181 5.55559 1.03132 5.40343 1.07213C5.25127 1.11294 5.09091 1.11192 4.93929 1.06916L4.16929 0.852162C4.0569 0.820534 3.93931 0.81172 3.82346 0.826238C3.70761 0.840757 3.59583 0.878314 3.49472 0.936698C3.39361 0.995082 3.30521 1.07311 3.23472 1.16619C3.16423 1.25927 3.11308 1.36551 3.08429 1.47866L2.88654 2.25391C2.84777 2.40653 2.76853 2.54585 2.65719 2.65719C2.54585 2.76853 2.40653 2.84777 2.25391 2.88654L1.47866 3.08341C1.36551 3.11221 1.25927 3.16335 1.16619 3.23384C1.07311 3.30433 0.995082 3.39274 0.936698 3.49385C0.878314 3.59496 0.840757 3.70673 0.826238 3.82258C0.81172 3.93844 0.820534 4.05602 0.852162 4.16841L1.06916 4.93929C1.11192 5.09091 1.11294 5.25127 1.07213 5.40343C1.03132 5.55559 0.950181 5.69391 0.837287 5.80379L0.264162 6.36204C0.180554 6.44355 0.114109 6.54098 0.0687407 6.64858C0.0233727 6.75618 0 6.87177 0 6.98854C0 7.10531 0.0233727 7.2209 0.0687407 7.32849C0.114109 7.43609 0.180554 7.53352 0.264162 7.61504L0.837287 8.17416C0.950028 8.28396 1.03107 8.42213 1.07188 8.57412C1.11269 8.72611 1.11175 8.88629 1.06916 9.03779L0.852162 9.80779C0.820534 9.92018 0.81172 10.0378 0.826238 10.1536C0.840757 10.2695 0.878314 10.3812 0.936698 10.4824C0.995082 10.5835 1.07311 10.6719 1.16619 10.7424C1.25927 10.8128 1.36551 10.864 1.47866 10.8928L2.25391 11.0905C2.40653 11.1293 2.54585 11.2085 2.65719 11.3199C2.76853 11.4312 2.84777 11.5705 2.88654 11.7232L3.08341 12.4984C3.11211 12.6116 3.16319 12.718 3.23364 12.8112C3.30408 12.9043 3.39248 12.9825 3.4936 13.0409C3.59472 13.0994 3.70653 13.137 3.82242 13.1516C3.93832 13.1662 4.05596 13.1574 4.16841 13.1258L4.93929 12.9088C5.09084 12.8659 5.25114 12.8648 5.4033 12.9054C5.55546 12.9461 5.69382 13.027 5.80379 13.1398L6.36204 13.7129C6.44355 13.7965 6.54098 13.863 6.64858 13.9083C6.75618 13.9537 6.87177 13.9771 6.98854 13.9771C7.10531 13.9771 7.2209 13.9537 7.32849 13.9083C7.43609 13.863 7.53352 13.7965 7.61504 13.7129L8.17416 13.1398C8.28405 13.0272 8.42226 12.9463 8.57425 12.9057C8.72623 12.865 8.88636 12.8661 9.03779 12.9088L9.80779 13.1258C9.92024 13.1574 10.0379 13.1662 10.1538 13.1516C10.2697 13.137 10.3815 13.0994 10.4826 13.0409C10.5837 12.9825 10.6721 12.9043 10.7426 12.8112C10.813 12.718 10.8641 12.6116 10.8928 12.4984L11.0905 11.7232C11.1293 11.5705 11.2085 11.4312 11.3199 11.3199C11.4312 11.2085 11.5705 11.1293 11.7232 11.0905L12.4984 10.8937C12.6116 10.865 12.718 10.8139 12.8112 10.7434C12.9043 10.673 12.9825 10.5846 13.0409 10.4835C13.0994 10.3824 13.137 10.2705 13.1516 10.1547C13.1662 10.0388 13.1574 9.92111 13.1258 9.80866L12.9088 9.03866C12.8659 8.88711 12.8648 8.7268 12.9054 8.57465C12.9461 8.42249 13.027 8.28413 13.1398 8.17416L13.7129 7.61504C13.7965 7.53352 13.863 7.43609 13.9083 7.32849C13.9537 7.2209 13.9771 7.10531 13.9771 6.98854C13.9771 6.87177 13.9537 6.75618 13.9083 6.64858C13.863 6.54098 13.7965 6.44355 13.7129 6.36204L13.1398 5.80379C13.027 5.69382 12.9461 5.55546 12.9054 5.4033C12.8648 5.25114 12.8659 5.09084 12.9088 4.93929L13.1258 4.16929C13.1574 4.05684 13.1662 3.93919 13.1516 3.8233C13.137 3.7074 13.0994 3.59559 13.0409 3.49447C12.9825 3.39335 12.9043 3.30496 12.8112 3.23451C12.718 3.16406 12.6116 3.11298 12.4984 3.08429L11.7232 2.88654C11.5705 2.84777 11.4312 2.76853 11.3199 2.65719C11.2085 2.54585 11.1293 2.40653 11.0905 2.25391L10.8937 1.47866C10.8649 1.36551 10.8137 1.25927 10.7432 1.16619C10.6727 1.07311 10.5843 0.995082 10.4832 0.936698C10.3821 0.878314 10.2703 0.840757 10.1545 0.826238C10.0386 0.81172 9.92105 0.820534 9.80866 0.852162L9.03866 1.06916C8.88691 1.11209 8.72638 1.1132 8.57405 1.07238C8.42172 1.03156 8.28325 0.950335 8.17329 0.837287L7.61504 0.264162ZM10.2899 5.49229C10.4152 5.37138 10.4874 5.20565 10.4905 5.03154C10.4936 4.85744 10.4274 4.68923 10.3065 4.56391C10.1856 4.4386 10.0199 4.36645 9.84579 4.36333C9.67169 4.36021 9.50348 4.42638 9.37816 4.54729L5.76091 8.04029L4.60854 6.88966C4.4852 6.76667 4.31805 6.69771 4.14386 6.69796C3.96967 6.6982 3.80272 6.76763 3.67972 6.89097C3.55673 7.01432 3.48777 7.18147 3.48802 7.35565C3.48826 7.52984 3.55769 7.69679 3.68104 7.81979L5.29016 9.42454C5.41169 9.54596 5.57597 9.61488 5.74775 9.61652C5.91953 9.61815 6.0851 9.55237 6.20891 9.43329L10.2899 5.49229Z" fill="#0DA26C"/>
</svg>
