<svg width="14" height="16" viewBox="0 0 14 16" fill="none" xmlns="http://www.w3.org/2000/svg">
<path fill-rule="evenodd" clip-rule="evenodd" d="M7.36339 0.950495C7.2805 0.950495 7.19843 0.967397 7.12186 1.00024C7.04528 1.03308 6.97571 1.08121 6.9171 1.14189C6.85849 1.20257 6.812 1.27461 6.78028 1.35389C6.74857 1.43317 6.73224 1.51815 6.73224 1.60396V4.23653C6.73224 4.23689 6.73224 4.23726 6.73224 4.23762C6.73224 4.23755 6.73224 4.2377 6.73224 4.23762C6.73213 4.50005 6.52659 4.71293 6.27312 4.71287C6.01965 4.71281 5.81421 4.50005 5.81421 4.23762C5.81421 4.23737 5.81421 4.23788 5.81421 4.23762C5.81417 4.1432 5.79929 3.76519 5.76897 3.3847C5.75387 3.19522 5.73568 3.01467 5.71513 2.87428C5.70477 2.80351 5.69495 2.75088 5.68656 2.71592C5.68637 2.71513 5.68619 2.71436 5.686 2.71361C5.61853 2.62146 5.52848 2.5493 5.4249 2.50481C5.30961 2.45529 5.18272 2.44228 5.06029 2.46742C4.93785 2.49255 4.82536 2.55472 4.73705 2.64604C4.55768 2.83152 4.26705 2.83133 4.0879 2.64562C3.90876 2.45991 3.90894 2.159 4.0883 1.97352C4.30508 1.74936 4.58119 1.59678 4.88171 1.53508C5.18223 1.47337 5.49368 1.50531 5.77667 1.62686C5.78927 1.63227 5.80178 1.63785 5.81421 1.64359V1.60396C5.81421 1.39332 5.85428 1.18475 5.93213 0.990151C6.00998 0.79555 6.1241 0.618731 6.26795 0.469789C6.41181 0.320848 6.58259 0.202701 6.77054 0.122094C6.9585 0.0414875 7.15995 0 7.36339 0C7.56683 0 7.76828 0.0414875 7.95623 0.122094C8.14419 0.202701 8.31497 0.320848 8.45882 0.469789C8.60268 0.618731 8.71679 0.79555 8.79464 0.990151C8.8725 1.18475 8.91257 1.39333 8.91257 1.60396V1.6441C9.10932 1.55323 9.32411 1.50495 9.54372 1.50495C9.95458 1.50495 10.3486 1.67394 10.6392 1.97474C10.9297 2.27554 11.0929 2.68351 11.0929 3.10891V3.14905C11.2896 3.05818 11.5044 3.0099 11.724 3.0099C12.1349 3.0099 12.529 3.17889 12.8195 3.47969C13.11 3.78049 13.2732 4.18846 13.2732 4.61386V11.0099C13.2732 11.8057 13.0896 12.5819 12.7467 13.2778L13.8656 14.4362C14.0448 14.6218 14.0448 14.9227 13.8656 15.1083C13.6863 15.2939 13.3957 15.2939 13.2164 15.1083L12.24 14.0974C12.1229 14.2512 11.9967 14.3985 11.8616 14.5384C10.9577 15.4743 9.73181 16 8.45355 16H7C6.97899 16 6.95801 15.9985 6.93719 15.9955C5.2861 15.7594 3.82177 14.8625 2.98148 13.5267C2.97294 13.5131 2.96508 13.4991 2.95792 13.4847L1.01052 9.56417C0.762209 9.19343 0.661096 8.73734 0.72921 8.2907C0.799308 7.83105 1.0429 7.41906 1.40638 7.14535C1.76987 6.87165 2.22349 6.75866 2.66745 6.83123C3.03891 6.89196 3.37814 7.07844 3.63388 7.35817V5.18695L0.134443 1.56377C-0.0448142 1.37818 -0.0448143 1.07727 0.134443 0.891672C0.3137 0.706076 0.604333 0.706076 0.78359 0.891672L12.0556 12.5623C12.2515 12.075 12.3552 11.548 12.3552 11.0099V4.61386C12.3552 4.44055 12.2887 4.27434 12.1703 4.15179C12.052 4.02924 11.8914 3.9604 11.724 3.9604C11.5567 3.9604 11.3961 4.02924 11.2778 4.15179C11.1599 4.27386 11.0934 4.43924 11.0929 4.61181C11.0929 4.61249 11.0929 4.61318 11.0929 4.61386L11.0929 8.75247C11.0929 9.01495 10.8874 9.22772 10.6339 9.22772C10.3804 9.22772 10.1749 9.01495 10.1749 8.75247L10.1749 4.61563C10.1749 4.61504 10.1749 4.61445 10.1749 4.61386C10.1749 4.61279 10.1749 4.61172 10.1749 4.61065L10.1749 3.10891C10.1749 2.9356 10.1084 2.76939 9.99 2.64684C9.87164 2.52429 9.71111 2.45545 9.54372 2.45545C9.40333 2.45545 9.26776 2.50387 9.15785 2.59179C9.15563 2.60211 9.15323 2.61388 9.15068 2.62721C9.13174 2.72604 9.11217 2.86854 9.09294 3.04833C9.05473 3.40541 9.02175 3.87151 8.99476 4.34741C8.94066 5.30137 8.91257 6.25837 8.91257 6.39407C8.91257 6.65654 8.70706 6.86932 8.45355 6.86932C8.20004 6.86932 7.99454 6.65654 7.99454 6.39407V1.60396C7.99454 1.51815 7.97821 1.43317 7.94649 1.35389C7.91477 1.27461 7.86828 1.20257 7.80968 1.14189C7.75107 1.08121 7.68149 1.03308 7.60492 1.00024C7.52834 0.967397 7.44627 0.950495 7.36339 0.950495ZM9.17146 2.53721C9.17583 2.5235 9.1763 2.52605 9.17102 2.53861C9.17117 2.53812 9.17132 2.53765 9.17146 2.53721ZM11.5852 13.4194L6.6343 8.29347C6.55026 8.40415 6.41976 8.47525 6.27322 8.47525C6.01972 8.47525 5.81421 8.26247 5.81421 8V7.44438L4.55191 6.13745V9.12871C4.55191 9.39118 4.3464 9.60396 4.0929 9.60396C4.08726 9.60396 4.08164 9.60385 4.07605 9.60365C3.90281 9.61115 3.73287 9.5162 3.64836 9.34607L3.01232 8.06559C2.89152 7.90741 2.7174 7.80167 2.52427 7.7701C2.32081 7.73684 2.11293 7.78862 1.94635 7.91405C1.77976 8.03949 1.66813 8.2283 1.63601 8.43895C1.60388 8.6496 1.6539 8.86483 1.77505 9.0373C1.78889 9.05702 1.80126 9.0778 1.81202 9.09948L3.76326 13.0277C4.43793 14.0862 5.63238 14.8409 7.03219 15.0495H8.45355C9.48833 15.0495 10.4807 14.6239 11.2124 13.8663C11.3478 13.7261 11.4723 13.5767 11.5852 13.4194Z" fill="#EFF0FA"/>
</svg>
