<svg width="26" height="26" viewBox="0 0 26 26" fill="none" xmlns="http://www.w3.org/2000/svg">
<path d="M13 26C5.8201 26 0 20.1799 0 13C0 5.8201 5.8201 0 13 0C20.1799 0 26 5.8201 26 13C26 20.1799 20.1799 26 13 26ZM13 23.4C15.7583 23.4 18.4035 22.3043 20.3539 20.3539C22.3043 18.4035 23.4 15.7583 23.4 13C23.4 10.2417 22.3043 7.59647 20.3539 5.64609C18.4035 3.69571 15.7583 2.6 13 2.6C10.2417 2.6 7.59647 3.69571 5.64609 5.64609C3.69571 7.59647 2.6 10.2417 2.6 13C2.6 15.7583 3.69571 18.4035 5.64609 20.3539C7.59647 22.3043 10.2417 23.4 13 23.4ZM8.45 15.6H15.6C15.7724 15.6 15.9377 15.5315 16.0596 15.4096C16.1815 15.2877 16.25 15.1224 16.25 14.95C16.25 14.7776 16.1815 14.6123 16.0596 14.4904C15.9377 14.3685 15.7724 14.3 15.6 14.3H10.4C9.53805 14.3 8.7114 13.9576 8.1019 13.3481C7.49241 12.7386 7.15 11.912 7.15 11.05C7.15 10.188 7.49241 9.3614 8.1019 8.7519C8.7114 8.14241 9.53805 7.8 10.4 7.8H11.7V5.2H14.3V7.8H17.55V10.4H10.4C10.2276 10.4 10.0623 10.4685 9.94038 10.5904C9.81848 10.7123 9.75 10.8776 9.75 11.05C9.75 11.2224 9.81848 11.3877 9.94038 11.5096C10.0623 11.6315 10.2276 11.7 10.4 11.7H15.6C16.462 11.7 17.2886 12.0424 17.8981 12.6519C18.5076 13.2614 18.85 14.088 18.85 14.95C18.85 15.812 18.5076 16.6386 17.8981 17.2481C17.2886 17.8576 16.462 18.2 15.6 18.2H14.3V20.8H11.7V18.2H8.45V15.6Z" fill="#525FE1"/>
</svg>
