<svg width="13" height="7" viewBox="0 0 13 7" fill="none" xmlns="http://www.w3.org/2000/svg">
<path fill-rule="evenodd" clip-rule="evenodd" d="M5.41969 6.73276C5.59085 6.90387 5.82297 7 6.065 7C6.30703 7 6.53916 6.90387 6.71032 6.73276L11.8738 1.56929C11.961 1.48509 12.0305 1.38438 12.0783 1.27302C12.1262 1.16166 12.1514 1.04188 12.1524 0.920689C12.1535 0.799493 12.1304 0.679302 12.0845 0.567128C12.0386 0.454953 11.9708 0.353042 11.8851 0.267341C11.7994 0.181639 11.6975 0.113864 11.5853 0.0679701C11.4731 0.0220759 11.3529 -0.00101819 11.2318 3.4954e-05C11.1106 0.0010881 10.9908 0.0262677 10.8794 0.0741043C10.7681 0.121941 10.6673 0.191476 10.5832 0.278654L6.065 4.7968L1.54686 0.278654C1.37471 0.112388 1.14415 0.020387 0.904825 0.0224666C0.665503 0.0245462 0.436573 0.12054 0.26734 0.289772C0.0981076 0.459005 0.00211415 0.687936 3.45046e-05 0.927258C-0.00204514 1.16658 0.0899556 1.39714 0.256222 1.56929L5.41969 6.73276Z" fill="#F9FBFC"/>
</svg>
