<svg width="16" height="16" viewBox="0 0 16 16" fill="none" xmlns="http://www.w3.org/2000/svg">
<path d="M8 0C12.4184 0 16 3.5816 16 8C16 12.4184 12.4184 16 8 16C3.5816 16 0 12.4184 0 8C0 3.5816 3.5816 0 8 0ZM8 1.6C6.30261 1.6 4.67475 2.27428 3.47452 3.47452C2.27428 4.67475 1.6 6.30261 1.6 8C1.6 9.69739 2.27428 11.3253 3.47452 12.5255C4.67475 13.7257 6.30261 14.4 8 14.4C9.69739 14.4 11.3253 13.7257 12.5255 12.5255C13.7257 11.3253 14.4 9.69739 14.4 8C14.4 6.30261 13.7257 4.67475 12.5255 3.47452C11.3253 2.27428 9.69739 1.6 8 1.6ZM10.24 9.4856C10.3146 9.41031 10.4035 9.3506 10.5014 9.30995C10.5993 9.26929 10.7043 9.24851 10.8104 9.2488C10.9164 9.2491 11.0213 9.27046 11.119 9.31165C11.2167 9.35284 11.3052 9.41304 11.3794 9.48874C11.4536 9.56445 11.5121 9.65415 11.5513 9.75264C11.5906 9.85112 11.6098 9.95643 11.608 10.0624C11.6062 10.1684 11.5834 10.273 11.5408 10.3701C11.4982 10.4672 11.4368 10.5549 11.36 10.628C10.4637 11.5089 9.25673 12.0017 8 12C6.74327 12.0017 5.53632 11.5089 4.64 10.628C4.49202 10.4787 4.40874 10.2772 4.40816 10.067C4.40758 9.85681 4.48975 9.65484 4.6369 9.50474C4.78405 9.35465 4.98436 9.2685 5.19453 9.26492C5.40469 9.26133 5.60782 9.34061 5.76 9.4856C6.35726 10.0733 7.1621 10.4018 8 10.4C8.872 10.4 9.6616 10.052 10.24 9.4856ZM5.2 4.8C5.51826 4.8 5.82348 4.92643 6.04853 5.15147C6.27357 5.37652 6.4 5.68174 6.4 6C6.4 6.31826 6.27357 6.62348 6.04853 6.84853C5.82348 7.07357 5.51826 7.2 5.2 7.2C4.88174 7.2 4.57652 7.07357 4.35147 6.84853C4.12643 6.62348 4 6.31826 4 6C4 5.68174 4.12643 5.37652 4.35147 5.15147C4.57652 4.92643 4.88174 4.8 5.2 4.8ZM10.8 4.8C11.1183 4.8 11.4235 4.92643 11.6485 5.15147C11.8736 5.37652 12 5.68174 12 6C12 6.31826 11.8736 6.62348 11.6485 6.84853C11.4235 7.07357 11.1183 7.2 10.8 7.2C10.4817 7.2 10.1765 7.07357 9.95147 6.84853C9.72643 6.62348 9.6 6.31826 9.6 6C9.6 5.68174 9.72643 5.37652 9.95147 5.15147C10.1765 4.92643 10.4817 4.8 10.8 4.8Z" fill="#F9FBFC"/>
</svg>
