<svg width="19" height="19" viewBox="0 0 19 19" fill="none" xmlns="http://www.w3.org/2000/svg">
<path d="M9.5 0C14.7469 0 19 4.25315 19 9.5C19 14.7469 14.7469 19 9.5 19C4.25315 19 0 14.7469 0 9.5C0 4.25315 4.25315 0 9.5 0ZM9.5 1.9C7.48435 1.9 5.55126 2.70071 4.12599 4.12599C2.70071 5.55126 1.9 7.48435 1.9 9.5C1.9 11.5156 2.70071 13.4487 4.12599 14.874C5.55126 16.2993 7.48435 17.1 9.5 17.1C11.5156 17.1 13.4487 16.2993 14.874 14.874C16.2993 13.4487 17.1 11.5156 17.1 9.5C17.1 7.48435 16.2993 5.55126 14.874 4.12599C13.4487 2.70071 11.5156 1.9 9.5 1.9ZM12.16 11.2642C12.2486 11.1747 12.3542 11.1038 12.4704 11.0556C12.5867 11.0073 12.7114 10.9826 12.8373 10.983C12.9632 10.9833 13.0878 11.0087 13.2038 11.0576C13.3198 11.1065 13.4249 11.178 13.5131 11.2679C13.6012 11.3578 13.6706 11.4643 13.7172 11.5813C13.7638 11.6982 13.7867 11.8233 13.7846 11.9491C13.7824 12.075 13.7553 12.1992 13.7047 12.3145C13.6541 12.4298 13.5812 12.5339 13.49 12.6207C12.4256 13.6668 10.9924 14.2521 9.5 14.25C8.00763 14.2521 6.57437 13.6668 5.51 12.6207C5.33428 12.4435 5.23538 12.2042 5.23469 11.9546C5.234 11.705 5.33158 11.4651 5.50632 11.2869C5.68106 11.1086 5.91893 11.0063 6.1685 11.0021C6.41807 10.9978 6.65929 11.092 6.84 11.2642C7.54925 11.962 8.505 12.3522 9.5 12.35C10.5355 12.35 11.4732 11.9368 12.16 11.2642ZM6.175 5.7C6.55293 5.7 6.91539 5.85013 7.18263 6.11737C7.44987 6.38461 7.6 6.74707 7.6 7.125C7.6 7.50293 7.44987 7.86539 7.18263 8.13263C6.91539 8.39987 6.55293 8.55 6.175 8.55C5.79707 8.55 5.43461 8.39987 5.16737 8.13263C4.90013 7.86539 4.75 7.50293 4.75 7.125C4.75 6.74707 4.90013 6.38461 5.16737 6.11737C5.43461 5.85013 5.79707 5.7 6.175 5.7ZM12.825 5.7C13.2029 5.7 13.5654 5.85013 13.8326 6.11737C14.0999 6.38461 14.25 6.74707 14.25 7.125C14.25 7.50293 14.0999 7.86539 13.8326 8.13263C13.5654 8.39987 13.2029 8.55 12.825 8.55C12.4471 8.55 12.0846 8.39987 11.8174 8.13263C11.5501 7.86539 11.4 7.50293 11.4 7.125C11.4 6.74707 11.5501 6.38461 11.8174 6.11737C12.0846 5.85013 12.4471 5.7 12.825 5.7Z" fill="#F9FBFC"/>
</svg>
