<svg width="21" height="21" viewBox="0 0 21 21" fill="none" xmlns="http://www.w3.org/2000/svg">
<path d="M9 0C13.968 0 18 4.032 18 9C18.0029 11.042 17.3082 13.0237 16.031 14.617L20.314 18.899L18.899 20.314L14.617 16.031C13.0237 17.3082 11.042 18.0029 9 18C4.032 18 0 13.968 0 9C0 4.032 4.032 0 9 0ZM9.47 5.318C9.43213 5.22438 9.36716 5.1442 9.28342 5.08775C9.19968 5.03129 9.10099 5.00113 9 5.00113C8.89901 5.00113 8.80032 5.03129 8.71658 5.08775C8.63284 5.1442 8.56787 5.22438 8.53 5.318L8.276 5.93C7.8513 6.9647 7.04603 7.79717 6.026 8.256L5.308 8.576C5.2162 8.61848 5.13847 8.68634 5.084 8.77157C5.02952 8.85681 5.00057 8.95585 5.00057 9.057C5.00057 9.15815 5.02952 9.25719 5.084 9.34243C5.13847 9.42766 5.2162 9.49552 5.308 9.538L6.068 9.876C7.06356 10.3222 7.85569 11.1253 8.288 12.127L8.533 12.692C8.713 13.107 9.286 13.107 9.467 12.692L9.714 12.127C10.1461 11.1255 10.9378 10.3224 11.933 9.876L12.693 9.538C12.7851 9.49564 12.8631 9.42777 12.9178 9.34243C12.9724 9.25709 13.0015 9.15786 13.0015 9.0565C13.0015 8.95514 12.9724 8.85591 12.9178 8.77057C12.8631 8.68523 12.7851 8.61736 12.693 8.575L11.975 8.255C10.9548 7.79662 10.1492 6.96451 9.724 5.93L9.47 5.318Z" fill="#525FE1"/>
</svg>
