<svg width="14" height="12" viewBox="0 0 14 12" fill="none" xmlns="http://www.w3.org/2000/svg">
<path d="M8.47368 8.84087C8.75753 8.84101 9.03044 8.95033 9.23586 9.14618C9.44129 9.34203 9.56348 9.60939 9.57712 9.89287C9.59076 10.1763 9.49481 10.4542 9.30913 10.6689C9.12346 10.8835 8.86231 11.0185 8.57979 11.0459L8.47368 11.0511H5.52632C5.24247 11.0509 4.96956 10.9416 4.76414 10.7458C4.55871 10.5499 4.43652 10.2826 4.42288 9.99908C4.40924 9.71561 4.50519 9.43775 4.69087 9.22309C4.87654 9.00842 5.13769 8.87341 5.42021 8.84602L5.52632 8.84087H8.47368ZM10.6842 4.42043C10.9773 4.42043 11.2585 4.53686 11.4657 4.74411C11.673 4.95136 11.7895 5.23245 11.7895 5.52554C11.7895 5.81864 11.673 6.09972 11.4657 6.30697C11.2585 6.51422 10.9773 6.63065 10.6842 6.63065H3.31579C3.02266 6.63065 2.74153 6.51422 2.53425 6.30697C2.32697 6.09972 2.21053 5.81864 2.21053 5.52554C2.21053 5.23245 2.32697 4.95136 2.53425 4.74411C2.74153 4.53686 3.02266 4.42043 3.31579 4.42043H10.6842ZM12.8947 0C13.1879 0 13.469 0.116431 13.6763 0.323679C13.8836 0.530927 14 0.812015 14 1.10511C14 1.3982 13.8836 1.67929 13.6763 1.88654C13.469 2.09379 13.1879 2.21022 12.8947 2.21022H1.10526C0.812129 2.21022 0.531001 2.09379 0.323724 1.88654C0.116447 1.67929 0 1.3982 0 1.10511C0 0.812015 0.116447 0.530927 0.323724 0.323679C0.531001 0.116431 0.812129 0 1.10526 0H12.8947Z" fill="#2A2D34"/>
</svg>
