<svg width="80" height="80" viewBox="0 0 80 80" fill="none" xmlns="http://www.w3.org/2000/svg">
<g clip-path="url(#clip0_1091_2177)">
<path d="M11.494 20.7179C11.5034 20.7108 11.5129 20.7085 11.5223 20.7014L11.5211 20.6979L11.494 20.7179Z" fill="#FFAB00"/>
<path d="M18.0107 17.1591C16.1039 15.2523 14.0568 15.5741 12.4776 17.1533L10.2125 46.2153C10.2125 46.4911 10.2373 46.7634 10.2526 47.0379L26.5561 30.7344C19.7337 32.5152 21.7383 26.8194 19.3719 25.3463C19.3731 25.3451 21.987 21.1354 18.0107 17.1591Z" fill="#FFAB00"/>
<path d="M69.14 35.2905C67.8377 33.9883 65.7282 33.9883 64.4259 35.2905L54.7904 44.926L53.7192 43.6403L69.7292 27.6302C71.3568 26.0027 71.3568 23.3652 69.7292 21.7376C68.1017 20.1101 65.4642 20.1101 63.8367 21.7376L48.3593 37.215L47.288 35.9293L63.8367 19.3806C65.4642 17.7531 65.4642 15.1156 63.8367 13.488C62.2092 11.8605 59.5716 11.8605 57.9441 13.488L41.927 29.5052L40.8557 28.2194L53.0616 16.0136C54.603 14.4721 54.8977 11.9595 53.5188 10.2719C51.9314 8.33088 49.0652 8.22482 47.3375 9.95251C47.0582 10.2318 10.2521 47.0379 10.2521 47.0379C10.4419 50.2918 11.8019 53.3771 14.12 55.6953L26.7136 68.2888C30.6192 72.1944 36.9501 72.1944 40.8557 68.2888L69.14 40.0046C70.4422 38.7023 70.4422 36.5928 69.14 35.2905Z" fill="#FFAB00"/>
<path d="M48.5164 14.6666C49.4927 15.6429 51.0756 15.6429 52.0519 14.6666C53.0283 13.6903 53.0283 12.1074 52.0519 11.131C51.0756 10.1547 49.4927 10.1547 48.5164 11.131C47.5401 12.1074 47.5401 13.6903 48.5164 14.6666Z" fill="white"/>
<path d="M59.1229 18.2017C60.0992 19.178 61.6821 19.178 62.6584 18.2017C63.6347 17.2254 63.6347 15.6425 62.6584 14.6662C61.6821 13.6899 60.0992 13.6899 59.1229 14.6662C58.1465 15.6425 58.1465 17.2254 59.1229 18.2017Z" fill="white"/>
<path d="M65.0154 26.4517C65.9917 27.428 67.5747 27.428 68.551 26.4517C69.5273 25.4754 69.5273 23.8925 68.551 22.9162C67.5747 21.9399 65.9917 21.9399 65.0154 22.9162C64.0391 23.8925 64.0391 25.4754 65.0154 26.4517Z" fill="white"/>
<path d="M65.6047 38.8256C66.2556 39.4764 67.3108 39.4764 67.9617 38.8256C68.6126 38.1747 68.6126 37.1194 67.9617 36.4686C67.3108 35.8177 66.2556 35.8177 65.6047 36.4686C64.9538 37.1194 64.9538 38.1747 65.6047 38.8256Z" fill="white"/>
</g>
<defs>
<clipPath id="clip0_1091_2177">
<rect width="80" height="80" fill="white"/>
</clipPath>
</defs>
</svg>
