<svg width="17" height="20" viewBox="0 0 17 20" fill="none" xmlns="http://www.w3.org/2000/svg">
<path d="M9.75 3.75V2.25C9.75 1.85218 9.59196 1.47064 9.31066 1.18934C9.02936 0.908035 8.64782 0.75 8.25 0.75C7.85218 0.75 7.47064 0.908035 7.18934 1.18934C6.90804 1.47064 6.75 1.85218 6.75 2.25V9.75M9.75 8.75V3.25C9.75 2.85218 9.90804 2.47064 10.1893 2.18934C10.4706 1.90804 10.8522 1.75 11.25 1.75C11.6478 1.75 12.0294 1.90804 12.3107 2.18934C12.592 2.47064 12.75 2.85218 12.75 3.25V7.75M6.75 4.75V3.25C6.75 2.85218 6.59196 2.47064 6.31066 2.18934C6.02936 1.90804 5.64782 1.75 5.25 1.75C4.85218 1.75 4.47064 1.90804 4.18934 2.18934C3.90804 2.47064 3.75 2.85218 3.75 3.25V9.25M3.75 9.25V11.75M3.75 9.25C3.75 8.85218 3.59196 8.47064 3.31066 8.18934C3.02936 7.90804 2.64782 7.75 2.25 7.75C1.85218 7.75 1.47064 7.90804 1.18934 8.18934C0.908035 8.47064 0.75 8.85218 0.75 9.25V11.25C0.75 13.75 2.25 18.75 8.25 18.75C10.75 18.75 15.75 17.25 15.75 11.25V7.25C15.75 6.85218 15.592 6.47064 15.3107 6.18934C15.0294 5.90804 14.6478 5.75 14.25 5.75C13.8522 5.75 13.4706 5.90804 13.1893 6.18934C12.908 6.47064 12.75 6.85218 12.75 7.25V9.75" stroke="#F9FBFC" stroke-width="1.5" stroke-linecap="round"/>
</svg>
