<svg width="28" height="28" viewBox="0 0 28 28" fill="none" xmlns="http://www.w3.org/2000/svg">
<path d="M22 0.5C25.0376 0.5 27.5 2.96243 27.5 6V22C27.5 25.0376 25.0376 27.5 22 27.5H0.5V0.5H22Z" stroke="#E8EAED"/>
<path fill-rule="evenodd" clip-rule="evenodd" d="M11.2928 18.7069C11.1053 18.5194 11 18.2651 11 17.9999C11 17.7348 11.1053 17.4804 11.2928 17.2929L14.5858 13.9999L11.2928 10.7069C11.1106 10.5183 11.0098 10.2657 11.0121 10.0035C11.0144 9.74132 11.1196 9.49051 11.305 9.3051C11.4904 9.11969 11.7412 9.01452 12.0034 9.01224C12.2656 9.00997 12.5182 9.11076 12.7068 9.29292L16.7068 13.2929C16.8943 13.4804 16.9996 13.7348 16.9996 13.9999C16.9996 14.2651 16.8943 14.5194 16.7068 14.7069L12.7068 18.7069C12.5193 18.8944 12.265 18.9997 11.9998 18.9997C11.7346 18.9997 11.4803 18.8944 11.2928 18.7069Z" fill="#2A2D34"/>
</svg>
