<svg width="28" height="28" viewBox="0 0 28 28" fill="none" xmlns="http://www.w3.org/2000/svg">
<path d="M6 0.5H27.5V27.5H6C2.96243 27.5 0.5 25.0376 0.5 22V6C0.5 2.96243 2.96243 0.5 6 0.5Z" stroke="#E8EAED"/>
<path fill-rule="evenodd" clip-rule="evenodd" d="M16.7068 9.29279C16.8943 9.48031 16.9996 9.73462 16.9996 9.99979C16.9996 10.265 16.8943 10.5193 16.7068 10.7068L13.4138 13.9998L16.7068 17.2928C16.8889 17.4814 16.9897 17.734 16.9875 17.9962C16.9852 18.2584 16.88 18.5092 16.6946 18.6946C16.5092 18.88 16.2584 18.9852 15.9962 18.9875C15.734 18.9897 15.4814 18.8889 15.2928 18.7068L11.2928 14.7068C11.1053 14.5193 11 14.265 11 13.9998C11 13.7346 11.1053 13.4803 11.2928 13.2928L15.2928 9.29279C15.4803 9.10532 15.7346 9 15.9998 9C16.265 9 16.5193 9.10532 16.7068 9.29279Z" fill="#2A2D34"/>
</svg>
