<svg width="19" height="14" viewBox="0 0 19 14" fill="none" xmlns="http://www.w3.org/2000/svg">
<path d="M3.83333 13H9.5M3.83333 13C2.90022 13 2.41006 12.987 2.03133 12.782C1.67579 12.59 1.38682 12.2837 1.20589 11.907C1 11.48 1 10.92 1 9.8V4.2C1 3.08 1 2.52 1.20589 2.092C1.38722 1.715 1.67528 1.41 2.03133 1.218C2.43556 1 2.96444 1 4.02222 1H14.9778C16.0356 1 16.5644 1 16.9677 1.218C17.3238 1.41 17.6128 1.715 17.7941 2.092C18 2.519 18 3.079 18 4.197V9.803C18 10.921 18 11.48 17.7941 11.907C17.6129 12.2838 17.3236 12.5902 16.9677 12.782C16.5644 13 16.0365 13 14.9806 13H9.5M3.83333 13C3.83333 11.895 5.10172 11 6.66667 11C8.23161 11 9.5 11.895 9.5 13M15.1667 9H11.3889M15.1667 6H12.3333M6.66667 8C6.1657 8 5.68526 7.78929 5.33102 7.41421C4.97678 7.03914 4.77778 6.53043 4.77778 6C4.77778 5.46957 4.97678 4.96086 5.33102 4.58579C5.68526 4.21071 6.1657 4 6.66667 4C7.16763 4 7.64808 4.21071 8.00231 4.58579C8.35655 4.96086 8.55556 5.46957 8.55556 6C8.55556 6.53043 8.35655 7.03914 8.00231 7.41421C7.64808 7.78929 7.16763 8 6.66667 8Z" stroke="#525FE1" stroke-width="2" stroke-linecap="round" stroke-linejoin="round"/>
</svg>
