<svg width="17" height="14" viewBox="0 0 17 14" fill="none" xmlns="http://www.w3.org/2000/svg">
<path d="M8.5 8.39959C9.43909 8.39968 10.3396 8.76879 11.0037 9.42493C11.6679 10.0813 12.0413 10.9719 12.0413 11.9001V13.2997C12.0413 13.6863 11.7238 14 11.3326 14C10.9416 13.9998 10.625 13.6862 10.625 13.2997V11.9001C10.625 11.3433 10.4008 10.8092 10.0024 10.4154C9.60401 10.0217 9.06346 9.8003 8.5 9.80021H3.54132C2.97774 9.80021 2.43739 10.0216 2.03888 10.4154C1.64045 10.8092 1.41632 11.3432 1.41632 11.9001V13.2997C1.41632 13.6863 1.09884 14 0.707642 14C0.316599 13.9998 0 13.6862 0 13.2997V11.9001C0 10.972 0.372458 10.0813 1.03656 9.42493C1.70075 8.76859 2.60201 8.39959 3.54132 8.39959H8.5Z" fill="#D24747"/>
<path fill-rule="evenodd" clip-rule="evenodd" d="M6.02014 0C7.97615 0 9.5625 1.56761 9.5625 3.50051C9.56231 5.43326 7.97604 7 6.02014 7C4.06442 6.9998 2.47901 5.43313 2.47882 3.50051C2.47882 1.56773 4.06431 0.000200934 6.02014 0ZM6.02014 1.40062C4.84671 1.40082 3.89514 2.3409 3.89514 3.50051C3.89533 4.65997 4.84682 5.60021 6.02014 5.60041C7.19363 5.60041 8.14495 4.6601 8.14514 3.50051C8.14514 2.34077 7.19375 1.40062 6.02014 1.40062Z" fill="#D24747"/>
<path d="M16.2913 5.60041C16.6824 5.60041 16.9998 5.91324 17 6.29969C17 6.68627 16.6825 7 16.2913 7H12.0413C11.6501 6.99998 11.3326 6.68626 11.3326 6.29969C11.3328 5.91325 11.6502 5.60043 12.0413 5.60041H16.2913Z" fill="#D24747"/>
</svg>
