<svg width="16" height="16" viewBox="0 0 16 16" fill="none" xmlns="http://www.w3.org/2000/svg">
<path d="M10.4423 11.5192V13.6731C10.4423 13.9587 10.3288 14.2326 10.1269 14.4346C9.92492 14.6365 9.651 14.75 9.36539 14.75H1.82692C1.54131 14.75 1.26739 14.6365 1.06542 14.4346C0.863461 14.2326 0.75 13.9587 0.75 13.6731V1.82692C0.75 1.54131 0.863461 1.26739 1.06542 1.06542C1.26739 0.863461 1.54131 0.75 1.82692 0.75H9.36539C9.651 0.75 9.92492 0.863461 10.1269 1.06542C10.3288 1.26739 10.4423 1.54131 10.4423 1.82692V3.98077M7.21154 7.75H14.75M14.75 7.75L12.5962 5.59615M14.75 7.75L12.5962 9.90385" stroke="#F9FBFC" stroke-width="1.5" stroke-linecap="round" stroke-linejoin="round"/>
</svg>
