<svg width="18" height="4" viewBox="0 0 18 4" fill="none" xmlns="http://www.w3.org/2000/svg">
<path d="M13.9969 2C13.9969 3.12264 14.8781 4 16.0031 4C17.1094 4 18 3.10377 18 2C18 0.905661 17.1094 6.21657e-07 16.0031 5.24946e-07C14.9062 4.29054e-07 13.9969 0.905661 13.9969 2ZM7.02187 2C7.02187 3.12264 7.89375 4 9 4C10.0969 4 10.9875 3.10377 10.9875 2C10.9875 0.905661 10.0969 8.60525e-09 9 -8.72866e-08C7.9125 -1.82359e-07 7.02187 0.90566 7.02187 2ZM-8.74228e-08 2C-1.36495e-07 3.12264 0.881248 4 1.99687 4C3.1125 4 4.00312 3.10377 4.00312 2C4.00312 0.90566 3.1125 -6.01988e-07 1.99687 -6.99519e-07C0.909374 -7.94591e-07 -3.95877e-08 0.905659 -8.74228e-08 2Z" fill="#6D7588"/>
</svg>
