<svg width="101" height="38" viewBox="0 0 101 38" fill="none" xmlns="http://www.w3.org/2000/svg">
<path d="M26.6173 5.26009C27.4021 3.97062 27.0327 2.26777 25.6624 1.63456C23.1461 0.471757 20.3983 -0.0885666 17.6236 0.0113649C13.9519 0.143605 10.4039 1.42589 7.44357 3.69057C4.48325 5.95524 2.24836 9.09692 1.03109 12.7048C-0.186173 16.3127 -0.329167 20.219 0.62081 23.9129C1.57079 27.6067 3.56952 30.9163 6.35569 33.4088C9.14186 35.9014 12.5858 37.4609 16.2372 37.8836C19.8887 38.3062 23.5777 37.5723 26.8219 35.7777C29.3021 34.4058 31.4341 32.4628 33.0632 30.1107C33.9078 28.8913 33.3879 27.2611 32.0859 26.5504C30.7219 25.8058 29.0313 26.3636 28.055 27.5727C27.0046 28.8734 25.7193 29.96 24.2627 30.7657C21.9876 32.0242 19.4006 32.5389 16.84 32.2425C14.2793 31.9461 11.8642 30.8524 9.91035 29.1045C7.95649 27.3565 6.55484 25.0356 5.88865 22.4452C5.22246 19.8548 5.32274 17.1155 6.17637 14.5854C7.03 12.0553 8.59726 9.85211 10.6732 8.26396C12.7492 6.67581 15.2373 5.77658 17.8122 5.68385C19.4199 5.62595 21.0147 5.88413 22.5157 6.43554C24.007 6.98337 25.7913 6.61724 26.6173 5.26009Z" fill="#525FE1"/>
<ellipse cx="32.2896" cy="9.06306" rx="3.47712" ry="3.47712" fill="#FFD057"/>
<path d="M43.1698 19.46C43.1698 18.0733 43.4698 16.84 44.0698 15.76C44.6698 14.6667 45.5031 13.82 46.5698 13.22C47.6498 12.6067 48.8698 12.3 50.2298 12.3C51.8964 12.3 53.3231 12.74 54.5098 13.62C55.6964 14.5 56.4898 15.7 56.8898 17.22H53.1298C52.8498 16.6333 52.4498 16.1867 51.9298 15.88C51.4231 15.5733 50.8431 15.42 50.1898 15.42C49.1364 15.42 48.2831 15.7867 47.6298 16.52C46.9764 17.2533 46.6498 18.2333 46.6498 19.46C46.6498 20.6867 46.9764 21.6667 47.6298 22.4C48.2831 23.1333 49.1364 23.5 50.1898 23.5C50.8431 23.5 51.4231 23.3467 51.9298 23.04C52.4498 22.7333 52.8498 22.2867 53.1298 21.7H56.8898C56.4898 23.22 55.6964 24.42 54.5098 25.3C53.3231 26.1667 51.8964 26.6 50.2298 26.6C48.8698 26.6 47.6498 26.3 46.5698 25.7C45.5031 25.0867 44.6698 24.24 44.0698 23.16C43.4698 22.08 43.1698 20.8467 43.1698 19.46ZM69.5041 20.74C69.5041 21.06 69.4841 21.3933 69.4441 21.74H61.7041C61.7575 22.4333 61.9775 22.9667 62.3641 23.34C62.7641 23.7 63.2508 23.88 63.8241 23.88C64.6775 23.88 65.2708 23.52 65.6041 22.8H69.2441C69.0575 23.5333 68.7175 24.1933 68.2241 24.78C67.7441 25.3667 67.1375 25.8267 66.4041 26.16C65.6708 26.4933 64.8508 26.66 63.9441 26.66C62.8508 26.66 61.8775 26.4267 61.0241 25.96C60.1708 25.4933 59.5041 24.8267 59.0241 23.96C58.5441 23.0933 58.3041 22.08 58.3041 20.92C58.3041 19.76 58.5375 18.7467 59.0041 17.88C59.4841 17.0133 60.1508 16.3467 61.0041 15.88C61.8575 15.4133 62.8375 15.18 63.9441 15.18C65.0241 15.18 65.9841 15.4067 66.8241 15.86C67.6641 16.3133 68.3175 16.96 68.7841 17.8C69.2641 18.64 69.5041 19.62 69.5041 20.74ZM66.0041 19.84C66.0041 19.2533 65.8041 18.7867 65.4041 18.44C65.0041 18.0933 64.5041 17.92 63.9041 17.92C63.3308 17.92 62.8441 18.0867 62.4441 18.42C62.0575 18.7533 61.8175 19.2267 61.7241 19.84H66.0041ZM78.1084 15.22C79.415 15.22 80.455 15.6467 81.2284 16.5C82.015 17.34 82.4084 18.5 82.4084 19.98V26.5H79.0084V20.44C79.0084 19.6933 78.815 19.1133 78.4284 18.7C78.0417 18.2867 77.5217 18.08 76.8684 18.08C76.215 18.08 75.695 18.2867 75.3084 18.7C74.9217 19.1133 74.7284 19.6933 74.7284 20.44V26.5H71.3084V15.34H74.7284V16.82C75.075 16.3267 75.5417 15.94 76.1284 15.66C76.715 15.3667 77.375 15.22 78.1084 15.22ZM91.0049 23.6V26.5H89.2649C88.0249 26.5 87.0583 26.2 86.3649 25.6C85.6716 24.9867 85.3249 23.9933 85.3249 22.62V18.18H83.9649V15.34H85.3249V12.62H88.7449V15.34H90.9849V18.18H88.7449V22.66C88.7449 22.9933 88.8249 23.2333 88.9849 23.38C89.1449 23.5267 89.4116 23.6 89.7849 23.6H91.0049ZM96.3299 17.2C96.7299 16.5867 97.2299 16.1067 97.8299 15.76C98.4299 15.4 99.0966 15.22 99.8299 15.22V18.84H98.8899C98.0366 18.84 97.3966 19.0267 96.9699 19.4C96.5433 19.76 96.3299 20.4 96.3299 21.32V26.5H92.9099V15.34H96.3299V17.2Z" fill="#525FE1"/>
</svg>
