<svg width="28" height="28" viewBox="0 0 28 28" fill="none" xmlns="http://www.w3.org/2000/svg">
<path d="M18.6673 19.8332V22.1665H2.33398V19.8332C2.33398 19.8332 2.33398 15.1665 10.5007 15.1665C18.6673 15.1665 18.6673 19.8332 18.6673 19.8332ZM14.584 8.74988C14.584 7.94227 14.3445 7.1528 13.8958 6.4813C13.4471 5.8098 12.8094 5.28643 12.0633 4.97737C11.3171 4.66831 10.4961 4.58745 9.70403 4.74501C8.91194 4.90256 8.18436 5.29146 7.6133 5.86253C7.04223 6.43359 6.65333 7.16117 6.49578 7.95326C6.33822 8.74535 6.41909 9.56637 6.72814 10.3125C7.0372 11.0586 7.56057 11.6964 8.23207 12.145C8.90357 12.5937 9.69304 12.8332 10.5007 12.8332C11.5836 12.8332 12.6222 12.403 13.388 11.6372C14.1538 10.8715 14.584 9.83285 14.584 8.74988ZM18.5973 15.1665C19.3145 15.7216 19.9014 16.4271 20.3166 17.2333C20.7318 18.0396 20.9653 18.927 21.0007 19.8332V22.1665H25.6673V19.8332C25.6673 19.8332 25.6673 15.5982 18.5973 15.1665ZM17.5007 4.66655C16.6977 4.66281 15.9126 4.90283 15.249 5.35488C15.9577 6.34507 16.3387 7.53221 16.3387 8.74988C16.3387 9.96755 15.9577 11.1547 15.249 12.1449C15.9126 12.5969 16.6977 12.8369 17.5007 12.8332C18.5836 12.8332 19.6222 12.403 20.388 11.6372C21.1538 10.8715 21.584 9.83285 21.584 8.74988C21.584 7.66691 21.1538 6.6283 20.388 5.86253C19.6222 5.09675 18.5836 4.66655 17.5007 4.66655Z" fill="#525FE1"/>
</svg>
