<svg width="26" height="26" viewBox="0 0 26 26" fill="none" xmlns="http://www.w3.org/2000/svg">
<path d="M1.625 4.3335V5.9585C1.625 10.4543 4.01917 14.3868 7.58333 16.5752V21.6668H23.8333V19.5002C23.8333 16.6185 18.0592 15.1668 15.1667 15.1668H14.8958C9.75 15.1668 5.41667 10.8335 5.41667 5.9585V4.3335M15.1667 4.3335C14.0174 4.3335 12.9152 4.79004 12.1025 5.6027C11.2899 6.41536 10.8333 7.51756 10.8333 8.66683C10.8333 9.8161 11.2899 10.9183 12.1025 11.731C12.9152 12.5436 14.0174 13.0002 15.1667 13.0002C16.3159 13.0002 17.4181 12.5436 18.2308 11.731C19.0435 10.9183 19.5 9.8161 19.5 8.66683C19.5 7.51756 19.0435 6.41536 18.2308 5.6027C17.4181 4.79004 16.3159 4.3335 15.1667 4.3335Z" fill="#525FE1"/>
</svg>
