<svg width="16" height="16" viewBox="0 0 16 16" fill="none" xmlns="http://www.w3.org/2000/svg">
<path d="M5.125 6.875H10.375M7.75 10.375H10.375M0.75 7.75C0.75 5.89348 1.4875 4.11301 2.80025 2.80025C4.11301 1.4875 5.89348 0.75 7.75 0.75C9.60652 0.75 11.387 1.4875 12.6997 2.80025C14.0125 4.11301 14.75 5.89348 14.75 7.75V12.2038C14.75 12.9458 14.75 13.315 14.6398 13.6116C14.5521 13.8467 14.4149 14.0601 14.2375 14.2375C14.0601 14.4149 13.8467 14.5521 13.6116 14.6398C13.315 14.75 12.9449 14.75 12.2038 14.75H7.75C5.89348 14.75 4.11301 14.0125 2.80025 12.6997C1.4875 11.387 0.75 9.60652 0.75 7.75Z" stroke="#525FE1" stroke-width="1.5" stroke-linecap="round"/>
</svg>
