<svg width="21" height="21" viewBox="0 0 21 21" fill="none" xmlns="http://www.w3.org/2000/svg">
<path d="M11.0605 0.560547C11.9888 0.560547 12.8788 0.92956 13.5352 1.58594C14.1915 2.24231 14.5605 3.13229 14.5605 4.06055V10.0605C14.5605 10.9888 14.1915 11.8788 13.5352 12.5352C12.8788 13.1915 11.9888 13.5605 11.0605 13.5605C10.1323 13.5605 9.24231 13.1915 8.58594 12.5352C7.92956 11.8788 7.56055 10.9888 7.56055 10.0605V4.06055C7.56055 3.13229 7.92956 2.24231 8.58594 1.58594C9.24231 0.92956 10.1323 0.560547 11.0605 0.560547ZM11.0605 1.06055C10.2649 1.06055 9.50206 1.37684 8.93945 1.93945C8.37684 2.50206 8.06055 3.2649 8.06055 4.06055V10.0605C8.06055 10.8562 8.37684 11.619 8.93945 12.1816C9.50206 12.7442 10.2649 13.0605 11.0605 13.0605C11.8562 13.0605 12.619 12.7442 13.1816 12.1816C13.7442 11.619 14.0605 10.8562 14.0605 10.0605V4.06055C14.0605 3.2649 13.7442 2.50206 13.1816 1.93945C12.619 1.37684 11.8562 1.06055 11.0605 1.06055ZM10.8105 16.5781L10.3477 16.5439C8.81204 16.4299 7.37294 15.7525 6.30566 14.6426C5.30502 13.6019 4.69727 12.2496 4.58105 10.8164L4.56445 10.5293L4.56055 10.3018V9.81055L4.56543 9.76367C4.57426 9.71772 4.59555 9.6743 4.62793 9.63965C4.67115 9.59353 4.73088 9.56583 4.79395 9.56152C4.85699 9.55732 4.91972 9.57731 4.96875 9.61719C5.01421 9.65433 5.04464 9.70628 5.05566 9.76367L5.06055 9.83008V10.3105L5.06738 10.5879C5.13404 11.9715 5.69873 13.288 6.66211 14.292C7.68967 15.3628 9.0914 15.9946 10.5742 16.0557V16.0566H10.585L10.8018 16.0605H11.3105C12.7947 16.0607 14.2212 15.4865 15.292 14.459C16.3628 13.4314 16.9946 12.0297 17.0557 10.5469H17.0566V10.5361L17.0605 10.3193V9.81055C17.0605 9.74424 17.0869 9.68067 17.1338 9.63379C17.1807 9.5869 17.2442 9.56055 17.3105 9.56055C17.3709 9.56055 17.4291 9.58246 17.4746 9.62207C17.5168 9.65889 17.5452 9.70889 17.5557 9.76367L17.5605 9.83008V10.3105C17.5607 11.8879 16.9647 13.4074 15.8916 14.5635C14.8185 15.7196 13.3475 16.4269 11.7744 16.5439L11.3115 16.5781V17.042L11.3105 19.3105C11.3105 19.3738 11.2864 19.4352 11.2432 19.4814C11.1999 19.5276 11.1402 19.5553 11.0771 19.5596C11.0141 19.5638 10.9514 19.5438 10.9023 19.5039C10.8561 19.4661 10.825 19.4131 10.8145 19.3545L10.8105 19.29V16.5781Z" fill="#F9FBFC" stroke="#F9FBFC"/>
<mask id="path-2-outside-1_488_835" maskUnits="userSpaceOnUse" x="-0.353667" y="-0.353667" width="21.2132" height="21.2132" fill="black">
<rect fill="white" x="-0.353667" y="-0.353667" width="21.2132" height="21.2132"/>
<path d="M1.06055 1.06055L2.12121 -0.000113279L20.506 18.3847L19.4453 19.4453L1.06055 1.06055Z"/>
</mask>
<path d="M1.06055 1.06055L2.12121 -0.000113279L20.506 18.3847L19.4453 19.4453L1.06055 1.06055Z" fill="#F9FBFC"/>
<path d="M19.4453 19.4453L20.506 18.3847L2.12121 -0.000113279L1.06055 1.06055L-0.000113279 2.12121L18.3847 20.506L19.4453 19.4453Z" fill="#2A2D34" mask="url(#path-2-outside-1_488_835)"/>
</svg>
