<svg width="15" height="24" viewBox="0 0 15 24" fill="none" xmlns="http://www.w3.org/2000/svg">
<path d="M6 18C5.80109 18 5.61032 18.079 5.46967 18.2197C5.32902 18.3603 5.25 18.5511 5.25 18.75C5.25 18.9489 5.32902 19.1397 5.46967 19.2803C5.61032 19.421 5.80109 19.5 6 19.5H9C9.19891 19.5 9.38968 19.421 9.53033 19.2803C9.67098 19.1397 9.75 18.9489 9.75 18.75C9.75 18.5511 9.67098 18.3603 9.53033 18.2197C9.38968 18.079 9.19891 18 9 18H6ZM3 0C2.20435 0 1.44129 0.31607 0.87868 0.87868C0.31607 1.44129 0 2.20435 0 3V21C0 21.7956 0.31607 22.5587 0.87868 23.1213C1.44129 23.6839 2.20435 24 3 24H12C12.7956 24 13.5587 23.6839 14.1213 23.1213C14.6839 22.5587 15 21.7956 15 21V3C15 2.20435 14.6839 1.44129 14.1213 0.87868C13.5587 0.31607 12.7956 0 12 0H3ZM1.5 3C1.5 2.60218 1.65804 2.22064 1.93934 1.93934C2.22064 1.65804 2.60218 1.5 3 1.5H12C12.3978 1.5 12.7794 1.65804 13.0607 1.93934C13.342 2.22064 13.5 2.60218 13.5 3V21C13.5 21.3978 13.342 21.7794 13.0607 22.0607C12.7794 22.342 12.3978 22.5 12 22.5H3C2.60218 22.5 2.22064 22.342 1.93934 22.0607C1.65804 21.7794 1.5 21.3978 1.5 21V3Z" fill="#2A2D34"/>
</svg>
