<svg width="15" height="24" viewBox="0 0 15 24" fill="none" xmlns="http://www.w3.org/2000/svg">
<path d="M0 3C0 1.344 1.47 0 3.28125 0H11.7188C13.53 0 15 1.344 15 3V21C15 21.7957 14.6543 22.5587 14.0389 23.1213C13.4236 23.6839 12.589 24 11.7188 24H3.28125C2.41101 24 1.57641 23.6839 0.961056 23.1213C0.345702 22.5587 0 21.7957 0 21V3ZM5.625 18.8571C5.37636 18.8571 5.1379 18.9474 4.96209 19.1082C4.78627 19.2689 4.6875 19.487 4.6875 19.7143C4.6875 19.9416 4.78627 20.1596 4.96209 20.3204C5.1379 20.4811 5.37636 20.5714 5.625 20.5714H9.375C9.62364 20.5714 9.8621 20.4811 10.0379 20.3204C10.2137 20.1596 10.3125 19.9416 10.3125 19.7143C10.3125 19.487 10.2137 19.2689 10.0379 19.1082C9.8621 18.9474 9.62364 18.8571 9.375 18.8571H5.625Z" fill="white"/>
</svg>
