<svg width="32" height="32" viewBox="0 0 32 32" fill="none" xmlns="http://www.w3.org/2000/svg">
<path d="M16 32C7.1632 32 0 24.8368 0 16C0 7.1632 7.1632 0 16 0C24.8368 0 32 7.1632 32 16C32 24.8368 24.8368 32 16 32ZM16 28.8C19.3948 28.8 22.6505 27.4514 25.051 25.051C27.4514 22.6505 28.8 19.3948 28.8 16C28.8 12.6052 27.4514 9.3495 25.051 6.94903C22.6505 4.54857 19.3948 3.2 16 3.2C12.6052 3.2 9.3495 4.54857 6.94903 6.94903C4.54857 9.3495 3.2 12.6052 3.2 16C3.2 19.3948 4.54857 22.6505 6.94903 25.051C9.3495 27.4514 12.6052 28.8 16 28.8ZM10.4 19.2H19.2C19.4122 19.2 19.6157 19.1157 19.7657 18.9657C19.9157 18.8157 20 18.6122 20 18.4C20 18.1878 19.9157 17.9843 19.7657 17.8343C19.6157 17.6843 19.4122 17.6 19.2 17.6H12.8C11.7391 17.6 10.7217 17.1786 9.97157 16.4284C9.22143 15.6783 8.8 14.6609 8.8 13.6C8.8 12.5391 9.22143 11.5217 9.97157 10.7716C10.7217 10.0214 11.7391 9.6 12.8 9.6H14.4V6.4H17.6V9.6H21.6V12.8H12.8C12.5878 12.8 12.3843 12.8843 12.2343 13.0343C12.0843 13.1843 12 13.3878 12 13.6C12 13.8122 12.0843 14.0157 12.2343 14.1657C12.3843 14.3157 12.5878 14.4 12.8 14.4H19.2C20.2609 14.4 21.2783 14.8214 22.0284 15.5716C22.7786 16.3217 23.2 17.3391 23.2 18.4C23.2 19.4609 22.7786 20.4783 22.0284 21.2284C21.2783 21.9786 20.2609 22.4 19.2 22.4H17.6V25.6H14.4V22.4H10.4V19.2Z" fill="#525FE1"/>
</svg>
