<svg width="34" height="26" viewBox="0 0 34 26" fill="none" xmlns="http://www.w3.org/2000/svg">
<path d="M1 7.85714V21.5714C1 22.4807 1.3746 23.3528 2.0414 23.9958C2.70819 24.6388 3.61256 25 4.55556 25H29.4444C30.3874 25 31.2918 24.6388 31.9586 23.9958C32.6254 23.3528 33 22.4807 33 21.5714V7.85714M1 7.85714V4.42857C1 3.51926 1.3746 2.64719 2.0414 2.00421C2.70819 1.36122 3.61256 1 4.55556 1H29.4444C30.3874 1 31.2918 1.36122 31.9586 2.00421C32.6254 2.64719 33 3.51926 33 4.42857V7.85714M1 7.85714H33M8.11111 14.7143H17" stroke="#2A2D34" stroke-width="2" stroke-linecap="round" stroke-linejoin="round"/>
</svg>
