<svg width="19" height="30" viewBox="0 0 19 30" fill="none" xmlns="http://www.w3.org/2000/svg">
<path d="M7.6 22.5C7.34804 22.5 7.10641 22.5988 6.92825 22.7746C6.75009 22.9504 6.65 23.1889 6.65 23.4375C6.65 23.6861 6.75009 23.9246 6.92825 24.1004C7.10641 24.2762 7.34804 24.375 7.6 24.375H11.4C11.652 24.375 11.8936 24.2762 12.0718 24.1004C12.2499 23.9246 12.35 23.6861 12.35 23.4375C12.35 23.1889 12.2499 22.9504 12.0718 22.7746C11.8936 22.5988 11.652 22.5 11.4 22.5H7.6ZM3.8 0C2.79218 0 1.82563 0.395088 1.11299 1.09835C0.400356 1.80161 0 2.75544 0 3.75V26.25C0 27.2446 0.400356 28.1984 1.11299 28.9016C1.82563 29.6049 2.79218 30 3.8 30H15.2C16.2078 30 17.1744 29.6049 17.887 28.9016C18.5996 28.1984 19 27.2446 19 26.25V3.75C19 2.75544 18.5996 1.80161 17.887 1.09835C17.1744 0.395088 16.2078 0 15.2 0H3.8ZM1.9 3.75C1.9 3.25272 2.10018 2.77581 2.4565 2.42417C2.81282 2.07254 3.29609 1.875 3.8 1.875H15.2C15.7039 1.875 16.1872 2.07254 16.5435 2.42417C16.8998 2.77581 17.1 3.25272 17.1 3.75V26.25C17.1 26.7473 16.8998 27.2242 16.5435 27.5758C16.1872 27.9275 15.7039 28.125 15.2 28.125H3.8C3.29609 28.125 2.81282 27.9275 2.4565 27.5758C2.10018 27.2242 1.9 26.7473 1.9 26.25V3.75Z" fill="#2A2D34"/>
</svg>
