<svg width="12" height="15" viewBox="0 0 12 15" fill="none" xmlns="http://www.w3.org/2000/svg">
<path d="M6 0C5.20435 0 4.44129 0.316071 3.87868 0.87868C3.31607 1.44129 3 2.20435 3 3C3 3.79565 3.31607 4.55871 3.87868 5.12132C4.44129 5.68393 5.20435 6 6 6C6.79565 6 7.55871 5.68393 8.12132 5.12132C8.68393 4.55871 9 3.79565 9 3C9 2.20435 8.68393 1.44129 8.12132 0.87868C7.55871 0.316071 6.79565 0 6 0ZM4.5 3C4.5 2.60218 4.65804 2.22064 4.93934 1.93934C5.22064 1.65804 5.60218 1.5 6 1.5C6.39782 1.5 6.77936 1.65804 7.06066 1.93934C7.34196 2.22064 7.5 2.60218 7.5 3C7.5 3.39782 7.34196 3.77936 7.06066 4.06066C6.77936 4.34196 6.39782 4.5 6 4.5C5.60218 4.5 5.22064 4.34196 4.93934 4.06066C4.65804 3.77936 4.5 3.39782 4.5 3ZM9.75 7.5H2.25C1.65326 7.5 1.08097 7.73705 0.65901 8.15901C0.237053 8.58097 0 9.15326 0 9.75C0 11.424 0.6885 12.765 1.818 13.6725C2.9295 14.565 4.4205 15 6 15C7.5795 15 9.0705 14.565 10.182 13.6725C11.31 12.765 12 11.424 12 9.75C12 9.15326 11.7629 8.58097 11.341 8.15901C10.919 7.73705 10.3467 7.5 9.75 7.5ZM2.25 9H9.75C9.94891 9 10.1397 9.07902 10.2803 9.21967C10.421 9.36032 10.5 9.55109 10.5 9.75C10.5 10.9755 10.0125 11.8845 9.243 12.5025C8.454 13.1355 7.32 13.5 6 13.5C4.68 13.5 3.546 13.1355 2.757 12.5025C1.9875 11.8845 1.5 10.9755 1.5 9.75C1.5 9.55109 1.57902 9.36032 1.71967 9.21967C1.86032 9.07902 2.05109 9 2.25 9Z" fill="#6D7588"/>
</svg>
