<svg width="16" height="16" viewBox="0 0 16 16" fill="none" xmlns="http://www.w3.org/2000/svg">
<path d="M7.99613 16C12.3809 16 16 12.3791 16 8C16 3.62089 12.3731 0 7.9884 0C3.61141 0 0 3.62089 0 8C0 12.3791 3.61914 16 7.99613 16ZM7.99613 14.4062C4.44659 14.4062 1.60851 11.5513 1.60851 8C1.60851 4.44874 4.44659 1.60155 7.9884 1.60155C11.5379 1.60155 14.3915 4.44874 14.3992 8C14.407 11.5513 11.5457 14.4062 7.99613 14.4062ZM8.00387 11.0329C9.68197 11.0329 11.0353 9.67892 11.0353 7.99226C11.0353 6.32108 9.68197 4.95938 8.00387 4.95938C6.31803 4.95938 4.96472 6.32108 4.96472 7.99226C4.96472 9.67892 6.31803 11.0329 8.00387 11.0329Z" fill="#EFF0FA"/>
</svg>
