<svg width="33" height="33" viewBox="0 0 33 33" fill="none" xmlns="http://www.w3.org/2000/svg">
<path d="M6.96694 12.5284L9.40441 13.5752C9.68376 13.0306 9.96853 12.5004 10.2587 11.9847C10.549 11.4689 10.8696 10.9496 11.2207 10.4268L9.41744 10.0779L6.96694 12.5284ZM12.5887 16.0013L16.6729 20.0692C17.8077 19.5703 18.9398 18.9401 20.0691 18.1787C21.1985 17.4173 22.2811 16.5187 23.3169 15.4828C24.9963 13.8034 26.3226 11.948 27.296 9.91649C28.2694 7.88498 28.7218 5.91976 28.6533 4.02084C26.7544 3.95237 24.7865 4.40481 22.7495 5.37818C20.7126 6.35155 18.8544 7.67791 17.1751 9.35725C16.1392 10.3931 15.2406 11.4757 14.4792 12.6051C13.7178 13.7344 13.0876 14.8665 12.5887 16.0013ZM19.5181 13.1398C18.9713 12.5931 18.6979 11.9222 18.6979 11.1271C18.6979 10.332 18.9713 9.66104 19.5181 9.1143C20.0648 8.56756 20.7384 8.29419 21.539 8.29419C22.3395 8.29419 23.0131 8.56756 23.5599 9.1143C24.1066 9.66104 24.38 10.332 24.38 11.1271C24.38 11.9222 24.1066 12.5931 23.5599 13.1398C23.0131 13.6866 22.3395 13.9599 21.539 13.9599C20.7384 13.9599 20.0648 13.6866 19.5181 13.1398ZM20.1246 25.7073L22.5963 23.2567L22.2474 21.4535C21.7245 21.8046 21.2053 22.1225 20.6895 22.4073C20.1737 22.6921 19.6436 22.9741 19.099 23.2535L20.1246 25.7073ZM32.4768 0.181111C32.9094 3.77136 32.5768 7.07192 31.4789 10.0828C30.3811 13.0937 28.5393 15.892 25.9534 18.4779C25.9251 18.5062 25.8933 18.5415 25.858 18.5839C25.8227 18.6263 25.7909 18.6616 25.7626 18.6899L26.5126 22.466C26.6409 23.1214 26.6088 23.7644 26.4164 24.3948C26.224 25.0252 25.8892 25.5791 25.4121 26.0562L18.7941 32.6742L15.199 24.2269L8.44734 17.4752L0 13.8801L6.60165 7.26212C7.07883 6.78494 7.63536 6.45015 8.27123 6.25776C8.90711 6.06537 9.55277 6.0333 10.2082 6.16156L13.9843 6.91156C14.0126 6.8833 14.0444 6.85857 14.0797 6.83737C14.115 6.81618 14.1468 6.79145 14.1751 6.76319C16.7609 4.17732 19.5601 2.32569 22.5726 1.20829C25.5851 0.0908983 28.8865 -0.251495 32.4768 0.181111ZM3.2984 22.2377C4.31471 21.2214 5.53537 20.707 6.96038 20.6945C8.38539 20.682 9.60605 21.1839 10.6224 22.2002C11.6387 23.2165 12.1406 24.4372 12.1281 25.8622C12.1156 27.2872 11.6012 28.5079 10.5849 29.5242C9.84681 30.2622 8.60523 30.8951 6.8601 31.4228C5.11498 31.9505 2.89133 32.3611 0.189148 32.6546C0.482623 29.9524 0.889689 27.7253 1.41034 25.9731C1.931 24.2209 2.56035 22.9758 3.2984 22.2377ZM6.1354 25.0372C5.91366 25.2589 5.70605 25.6233 5.51258 26.1304C5.3191 26.6374 5.17236 27.179 5.07236 27.7551C5.64844 27.6551 6.19001 27.5075 6.69707 27.3124C7.20413 27.1173 7.56853 26.9089 7.79026 26.6872C8.03374 26.4437 8.16091 26.1624 8.17178 25.8434C8.18265 25.5244 8.06635 25.2432 7.82287 24.9997C7.57939 24.7562 7.29815 24.6407 6.97913 24.6532C6.66012 24.6657 6.37887 24.7937 6.1354 25.0372Z" fill="white"/>
</svg>
