<svg width="18" height="18" viewBox="0 0 18 18" fill="none" xmlns="http://www.w3.org/2000/svg">
<path fill-rule="evenodd" clip-rule="evenodd" d="M15.2023 0.125874C15.5751 -0.00988247 15.9789 -0.0364708 16.3663 0.0492341C16.7537 0.134939 17.1086 0.329375 17.3892 0.609691C17.6698 0.890008 17.8646 1.24455 17.9505 1.63166C18.0365 2.01877 18.0101 2.42235 17.8744 2.79498L13.2763 16.5673C13.1645 16.9058 12.9676 17.2099 12.7045 17.4505C12.4414 17.6911 12.1209 17.8603 11.7737 17.9418C11.4273 18.0259 11.0649 18.0188 10.7221 17.9209C10.3793 17.8231 10.0678 17.638 9.81813 17.3838L7.35056 14.9294L4.75949 16.2691C4.66016 16.3205 4.54912 16.3452 4.43733 16.3407C4.32554 16.3362 4.21686 16.3026 4.12203 16.2433C4.0272 16.1839 3.94949 16.1009 3.89658 16.0024C3.84367 15.9039 3.81738 15.7933 3.82032 15.6815L3.9271 11.5878L12.9907 5.00894C13.0762 4.9469 13.1486 4.86863 13.2038 4.77861C13.2591 4.68859 13.296 4.58858 13.3125 4.4843C13.3291 4.38001 13.3249 4.27349 13.3003 4.17081C13.2756 4.06814 13.231 3.97132 13.1689 3.88589C13.1068 3.80046 13.0285 3.72808 12.9384 3.6729C12.8483 3.61771 12.7483 3.5808 12.6439 3.56426C12.5396 3.54773 12.433 3.55189 12.3302 3.57653C12.2275 3.60116 12.1306 3.64577 12.0451 3.70782L2.8284 10.3986L0.602704 8.17432C0.362835 7.93454 0.18599 7.63923 0.0879029 7.31466C-0.0101839 6.99008 -0.0264711 6.64631 0.0404902 6.31392C0.107704 5.95068 0.270375 5.61184 0.511825 5.33214C0.753274 5.05244 1.06482 4.84194 1.41451 4.72223H1.41965L15.2023 0.125874Z" fill="#F9FBFC"/>
</svg>
