<svg width="22" height="22" viewBox="0 0 22 22" fill="none" xmlns="http://www.w3.org/2000/svg">
<path d="M10.7227 13.3744C12.1872 13.3744 13.3744 12.1872 13.3744 10.7227C13.3744 9.25825 12.1872 8.07107 10.7227 8.07107C9.25825 8.07107 8.07107 9.25825 8.07107 10.7227C8.07107 12.1872 9.25825 13.3744 10.7227 13.3744Z" stroke="#F9FBFC" stroke-width="2" stroke-linecap="round" stroke-linejoin="round"/>
<path d="M17.2635 13.3744C17.1458 13.641 17.1107 13.9367 17.1627 14.2234C17.2147 14.5101 17.3514 14.7747 17.5551 14.983L17.6082 15.0361C17.7725 15.2002 17.9029 15.3952 17.9919 15.6098C18.0808 15.8244 18.1266 16.0545 18.1266 16.2868C18.1266 16.5191 18.0808 16.7491 17.9919 16.9637C17.9029 17.1783 17.7725 17.3733 17.6082 17.5375C17.444 17.7018 17.249 17.8322 17.0344 17.9212C16.8198 18.0101 16.5898 18.0559 16.3575 18.0559C16.1252 18.0559 15.8951 18.0101 15.6805 17.9212C15.4659 17.8322 15.271 17.7018 15.1068 17.5375L15.0537 17.4844C14.8454 17.2807 14.5809 17.144 14.2941 17.092C14.0074 17.04 13.7117 17.0751 13.4451 17.1927C13.1837 17.3048 12.9607 17.4908 12.8037 17.728C12.6466 17.9651 12.5623 18.243 12.5612 18.5274V18.6777C12.5612 19.1465 12.3749 19.5961 12.0434 19.9277C11.7119 20.2592 11.2623 20.4454 10.7934 20.4454C10.3246 20.4454 9.87495 20.2592 9.54343 19.9277C9.21191 19.5961 9.02566 19.1465 9.02566 18.6777V18.5981C9.01882 18.3056 8.92412 18.0218 8.75388 17.7838C8.58363 17.5458 8.34572 17.3645 8.07107 17.2635C7.80447 17.1458 7.50875 17.1107 7.22202 17.1627C6.93529 17.2147 6.67071 17.3514 6.4624 17.5551L6.40937 17.6082C6.24519 17.7725 6.05022 17.9029 5.83562 17.9919C5.62102 18.0808 5.39098 18.1266 5.15867 18.1266C4.92636 18.1266 4.69633 18.0808 4.48172 17.9919C4.26712 17.9029 4.07215 17.7725 3.90798 17.6082C3.74362 17.444 3.61323 17.249 3.52427 17.0344C3.4353 16.8198 3.38951 16.5898 3.38951 16.3575C3.38951 16.1252 3.4353 15.8951 3.52427 15.6805C3.61323 15.4659 3.74362 15.271 3.90798 15.1068L3.96101 15.0537C4.16478 14.8454 4.30147 14.5809 4.35346 14.2941C4.40545 14.0074 4.37035 13.7117 4.25269 13.4451C4.14065 13.1837 3.95461 12.9607 3.71747 12.8037C3.48033 12.6466 3.20245 12.5623 2.91803 12.5612H2.76777C2.29893 12.5612 1.84929 12.3749 1.51777 12.0434C1.18625 11.7119 1 11.2623 1 10.7934C1 10.3246 1.18625 9.87495 1.51777 9.54343C1.84929 9.21191 2.29893 9.02566 2.76777 9.02566H2.84732C3.13988 9.01882 3.42361 8.92412 3.66164 8.75388C3.89966 8.58363 4.08097 8.34572 4.18198 8.07107C4.29964 7.80447 4.33474 7.50875 4.28275 7.22202C4.23076 6.93529 4.09407 6.67071 3.8903 6.4624L3.83727 6.40937C3.67291 6.24519 3.54252 6.05022 3.45355 5.83562C3.36459 5.62102 3.3188 5.39098 3.3188 5.15867C3.3188 4.92636 3.36459 4.69633 3.45355 4.48172C3.54252 4.26712 3.67291 4.07215 3.83727 3.90798C4.00144 3.74362 4.19641 3.61323 4.41101 3.52427C4.62562 3.4353 4.85565 3.38951 5.08796 3.38951C5.32027 3.38951 5.55031 3.4353 5.76491 3.52427C5.97951 3.61323 6.17448 3.74362 6.33866 3.90798L6.39169 3.96101C6.6 4.16478 6.86458 4.30147 7.15131 4.35346C7.43804 4.40545 7.73376 4.37035 8.00036 4.25269H8.07107C8.33249 4.14065 8.55545 3.95461 8.7125 3.71747C8.86954 3.48033 8.95382 3.20245 8.95495 2.91803V2.76777C8.95495 2.29893 9.1412 1.84929 9.47272 1.51777C9.80424 1.18625 10.2539 1 10.7227 1C11.1916 1 11.6412 1.18625 11.9727 1.51777C12.3042 1.84929 12.4905 2.29893 12.4905 2.76777V2.84732C12.4916 3.13174 12.5759 3.40962 12.7329 3.64676C12.89 3.8839 13.1129 4.06994 13.3744 4.18198C13.641 4.29964 13.9367 4.33474 14.2234 4.28275C14.5101 4.23076 14.7747 4.09407 14.983 3.8903L15.0361 3.83727C15.2002 3.67291 15.3952 3.54252 15.6098 3.45355C15.8244 3.36459 16.0545 3.3188 16.2868 3.3188C16.5191 3.3188 16.7491 3.36459 16.9637 3.45355C17.1783 3.54252 17.3733 3.67291 17.5375 3.83727C17.7018 4.00144 17.8322 4.19641 17.9212 4.41101C18.0101 4.62562 18.0559 4.85565 18.0559 5.08796C18.0559 5.32027 18.0101 5.55031 17.9212 5.76491C17.8322 5.97951 17.7018 6.17448 17.5375 6.33866L17.4844 6.39169C17.2807 6.6 17.144 6.86458 17.092 7.15131C17.04 7.43804 17.0751 7.73376 17.1927 8.00036V8.07107C17.3048 8.33249 17.4908 8.55545 17.728 8.7125C17.9651 8.86954 18.243 8.95382 18.5274 8.95495H18.6777C19.1465 8.95495 19.5961 9.1412 19.9277 9.47272C20.2592 9.80424 20.4454 10.2539 20.4454 10.7227C20.4454 11.1916 20.2592 11.6412 19.9277 11.9727C19.5961 12.3042 19.1465 12.4905 18.6777 12.4905H18.5981C18.3137 12.4916 18.0358 12.5759 17.7987 12.7329C17.5615 12.89 17.3755 13.1129 17.2635 13.3744Z" stroke="#F9FBFC" stroke-width="2" stroke-linecap="round" stroke-linejoin="round"/>
</svg>
