<svg width="17" height="13" viewBox="0 0 17 13" fill="none" xmlns="http://www.w3.org/2000/svg">
<path fill-rule="evenodd" clip-rule="evenodd" d="M8.67105 1.60802C8.45503 0.375986 9.82242 -0.478382 10.7704 0.295446L16.4989 4.96671C16.6551 5.09401 16.7813 5.25646 16.8681 5.44179C16.9549 5.62713 17 5.83051 17 6.03658C17 6.24265 16.9549 6.44603 16.8681 6.63137C16.7813 6.8167 16.6551 6.97915 16.4989 7.10644L10.7704 11.7777C9.82137 12.5515 8.45503 11.6972 8.67105 10.4651L8.90698 9.12101C6.84017 8.7477 5.40882 9.13189 4.41369 9.74464C3.28539 10.439 2.61532 11.4893 2.23258 12.348C1.97148 12.9325 1.3853 13.0293 1.06233 12.9934C0.746701 12.9575 0.126973 12.7159 0.065105 11.9976C-0.289325 7.89442 0.824299 5.29758 2.8953 3.90664C4.58986 2.76713 6.77096 2.55163 8.87028 2.74645L8.67105 1.60802ZM10.3425 2.0216L10.6089 3.54313C10.6313 3.67096 10.624 3.8025 10.5876 3.92681C10.5512 4.05113 10.4868 4.16463 10.3996 4.25788C10.3124 4.35112 10.205 4.42143 10.0864 4.46294C9.96779 4.50445 9.84134 4.51597 9.71756 4.49654C7.42215 4.13738 5.24733 4.27016 3.74992 5.2769C2.54716 6.08556 1.62544 7.57117 1.57405 10.2921C2.11712 9.50321 2.81062 8.83862 3.6115 8.33956C5.1257 7.40792 7.20509 6.99325 10.0007 7.68981C10.1963 7.73847 10.3665 7.86305 10.4763 8.03796C10.5861 8.21286 10.6272 8.42479 10.5911 8.63015L10.3425 10.0505L15.2647 6.03658L10.3425 2.0216Z" fill="#525FE1"/>
</svg>
