<svg width="21" height="16" viewBox="0 0 21 16" fill="none" xmlns="http://www.w3.org/2000/svg">
<path d="M2.625 0C1.92881 0 1.26113 0.294999 0.768845 0.820101C0.276562 1.3452 0 2.05739 0 2.8V13.2C0 14.7456 1.176 16 2.625 16H18.375C19.0712 16 19.7389 15.705 20.2312 15.1799C20.7234 14.6548 21 13.9426 21 13.2V2.8C21 2.05739 20.7234 1.3452 20.2312 0.820101C19.7389 0.294999 19.0712 0 18.375 0H2.625ZM1.5 2.8C1.5 2.48174 1.61853 2.17652 1.8295 1.95147C2.04048 1.72643 2.32663 1.6 2.625 1.6H18.375C18.6734 1.6 18.9595 1.72643 19.1705 1.95147C19.3815 2.17652 19.5 2.48174 19.5 2.8V13.2C19.5 13.5183 19.3815 13.8235 19.1705 14.0485C18.9595 14.2736 18.6734 14.4 18.375 14.4H2.625C2.32663 14.4 2.04048 14.2736 1.8295 14.0485C1.61853 13.8235 1.5 13.5183 1.5 13.2V2.8ZM11.031 3.4336C10.9613 3.3591 10.8786 3.29999 10.7874 3.25966C10.6963 3.21933 10.5987 3.19857 10.5 3.19857C10.4013 3.19857 10.3037 3.21933 10.2126 3.25966C10.1214 3.29999 10.0387 3.3591 9.969 3.4336L6.969 6.6336C6.82817 6.78382 6.74905 6.98756 6.74905 7.2C6.74905 7.41244 6.82817 7.61618 6.969 7.7664C7.10983 7.91662 7.30084 8.00101 7.5 8.00101C7.69916 8.00101 7.89017 7.91662 8.031 7.7664L9.75 5.9312V12C9.75 12.2122 9.82902 12.4157 9.96967 12.5657C10.1103 12.7157 10.3011 12.8 10.5 12.8C10.6989 12.8 10.8897 12.7157 11.0303 12.5657C11.171 12.4157 11.25 12.2122 11.25 12V5.9312L12.969 7.7664C13.1098 7.91662 13.3008 8.00101 13.5 8.00101C13.6992 8.00101 13.8902 7.91662 14.031 7.7664C14.1718 7.61618 14.2509 7.41244 14.2509 7.2C14.2509 6.98756 14.1718 6.78382 14.031 6.6336L11.031 3.4336Z" fill="#F9FBFC"/>
</svg>
