<svg width="18" height="18" viewBox="0 0 18 18" fill="none" xmlns="http://www.w3.org/2000/svg">
<path d="M9 0.5C13.6946 0.5 17.5 4.30544 17.5 9C17.5 13.6946 13.6946 17.5 9 17.5C4.30544 17.5 0.5 13.6946 0.5 9C0.5 4.30544 4.30544 0.5 9 0.5ZM9 1.2998C6.95783 1.2998 4.99969 2.11163 3.55566 3.55566C2.11163 4.99969 1.2998 6.95783 1.2998 9C1.2998 11.0422 2.11163 13.0003 3.55566 14.4443C4.90944 15.7981 6.71502 16.596 8.61816 16.6904L9 16.7002C11.0422 16.7002 13.0003 15.8884 14.4443 14.4443C15.8884 13.0003 16.7002 11.0422 16.7002 9L16.6904 8.61816C16.596 6.71502 15.7981 4.90944 14.4443 3.55566C13.0003 2.11163 11.0422 1.2998 9 1.2998ZM9.40039 4.09961V5.90039H11.6504V6.7002H7.2002C6.97969 6.7002 6.76672 6.77647 6.59766 6.91504L6.52832 6.97852C6.3726 7.13428 6.27656 7.3384 6.25488 7.55566L6.25 7.65039L6.25488 7.74414C6.27652 7.96143 6.37261 8.16549 6.52832 8.32129C6.70648 8.49945 6.94824 8.59961 7.2002 8.59961H10.7998C11.2638 8.59961 11.7089 8.7843 12.0371 9.1123C12.3652 9.4404 12.5497 9.88562 12.5498 10.3496C12.5498 10.8137 12.3653 11.2597 12.0371 11.5879C11.709 11.9158 11.2637 12.0996 10.7998 12.0996H9.40039V13.9004H8.59961V12.0996H6.34961V11.2998H10.7998C11.0518 11.2998 11.2935 11.1996 11.4717 11.0215C11.6498 10.8433 11.75 10.6015 11.75 10.3496C11.7499 10.1294 11.6735 9.91696 11.5352 9.74805L11.4717 9.67871L11.4023 9.61523C11.2333 9.47662 11.0204 9.40039 10.7998 9.40039H7.2002C6.7362 9.40039 6.29105 9.2157 5.96289 8.8877C5.63479 8.5596 5.4503 8.11438 5.4502 7.65039C5.4502 7.18626 5.6347 6.7403 5.96289 6.41211C6.29104 6.08417 6.73625 5.90039 7.2002 5.90039H8.59961V4.09961H9.40039Z" fill="#525FE1" stroke="black"/>
</svg>
