<svg width="46" height="46" viewBox="0 0 46 46" fill="none" xmlns="http://www.w3.org/2000/svg">
<rect x="1" y="1" width="44" height="44" rx="7" stroke="#525FE1" stroke-width="2"/>
<path d="M16.1716 17.201C15.8001 17.5818 15.5055 18.0338 15.3045 18.5313C15.1035 19.0288 15 19.562 15 20.1005C15 20.639 15.1035 21.1722 15.3045 21.6697C15.5055 22.1672 15.8001 22.6193 16.1716 23L23 30L29.8284 23C30.5786 22.231 31 21.188 31 20.1005C31 19.013 30.5786 17.97 29.8284 17.201C29.0783 16.432 28.0609 16 27 16C25.9391 16 24.9217 16.432 24.1716 17.201L23 18.402L21.8285 17.201C21.457 16.8203 21.0161 16.5182 20.5308 16.3121C20.0455 16.1061 19.5253 16 19 16C18.4747 16 17.9546 16.1061 17.4693 16.3121C16.984 16.5182 16.543 16.8203 16.1716 17.201Z" stroke="#525FE1" stroke-width="2" stroke-linecap="round" stroke-linejoin="round"/>
</svg>
