<svg width="13" height="7" viewBox="0 0 13 7" fill="none" xmlns="http://www.w3.org/2000/svg">
<path fill-rule="evenodd" clip-rule="evenodd" d="M5.41969 0.267243C5.59085 0.0961277 5.82297 2.22307e-07 6.065 2.11727e-07C6.30703 2.01148e-07 6.53916 0.0961277 6.71032 0.267243L11.8738 5.43071C11.961 5.51491 12.0305 5.61562 12.0783 5.72698C12.1262 5.83834 12.1514 5.95812 12.1524 6.07931C12.1535 6.20051 12.1304 6.3207 12.0845 6.43287C12.0386 6.54505 11.9708 6.64696 11.8851 6.73266C11.7994 6.81836 11.6975 6.88614 11.5853 6.93203C11.4731 6.97792 11.3529 7.00102 11.2318 6.99997C11.1106 6.99891 10.9908 6.97373 10.8794 6.9259C10.7681 6.87806 10.6673 6.80852 10.5832 6.72135L6.065 2.2032L1.54686 6.72135C1.37471 6.88761 1.14415 6.97961 0.904825 6.97753C0.665503 6.97545 0.436573 6.87946 0.26734 6.71023C0.0981076 6.541 0.00211415 6.31206 3.45046e-05 6.07274C-0.00204514 5.83342 0.0899556 5.60286 0.256222 5.43071L5.41969 0.267243Z" fill="#F9FBFC"/>
</svg>
