<svg width="34" height="34" viewBox="0 0 34 34" fill="none" xmlns="http://www.w3.org/2000/svg">
<g filter="url(#filter0_dd_1637_1962)">
<path fill-rule="evenodd" clip-rule="evenodd" d="M10.9338 2.36419C11.979 2.28029 12.9712 1.8692 13.7694 1.18929C14.6708 0.421615 15.816 0 17 0C18.184 0 19.3292 0.421615 20.2306 1.18929C21.0288 1.8692 22.021 2.28029 23.0662 2.36419C24.2467 2.45853 25.355 2.97026 26.1924 3.80765C27.0297 4.64503 27.5415 5.7533 27.6358 6.93377C27.7187 7.97866 28.1298 8.97156 28.8107 9.76944C29.5784 10.6708 30 11.816 30 13C30 14.184 29.5784 15.3292 28.8107 16.2306C28.1308 17.0288 27.7197 18.021 27.6358 19.0662C27.5415 20.2467 27.0297 21.355 26.1924 22.1924C25.355 23.0297 24.2467 23.5415 23.0662 23.6358C22.021 23.7197 21.0288 24.1308 20.2306 24.8107C19.3292 25.5784 18.184 26 17 26C15.816 26 14.6708 25.5784 13.7694 24.8107C12.9712 24.1308 11.979 23.7197 10.9338 23.6358C9.7533 23.5415 8.64503 23.0297 7.80765 22.1924C6.97026 21.355 6.45853 20.2467 6.36419 19.0662C6.28029 18.021 5.8692 17.0288 5.18929 16.2306C4.42162 15.3292 4 14.184 4 13C4 11.816 4.42162 10.6708 5.18929 9.76944C5.8692 8.97118 6.28029 7.97898 6.36419 6.93377C6.45853 5.7533 6.97026 4.64503 7.80765 3.80765C8.64503 2.97026 9.7533 2.45853 10.9338 2.36419ZM23.024 10.8988C23.32 10.5924 23.4838 10.1819 23.4801 9.75579C23.4764 9.32972 23.3055 8.92214 23.0042 8.62084C22.7029 8.31955 22.2953 8.14865 21.8692 8.14494C21.4432 8.14124 21.0327 8.30504 20.7262 8.60105L15.375 13.9523L13.2738 11.8511C12.9673 11.5551 12.5568 11.3913 12.1308 11.395C11.7047 11.3987 11.2971 11.5696 10.9958 11.8709C10.6945 12.1722 10.5236 12.5798 10.5199 13.0058C10.5162 13.4319 10.68 13.8424 10.976 14.1489L14.2261 17.399C14.5308 17.7036 14.9441 17.8747 15.375 17.8747C15.8059 17.8747 16.2191 17.7036 16.5239 17.399L23.024 10.8988Z" fill="#525FE1"/>
</g>
<defs>
<filter id="filter0_dd_1637_1962" x="0" y="0" width="34" height="34" filterUnits="userSpaceOnUse" color-interpolation-filters="sRGB">
<feFlood flood-opacity="0" result="BackgroundImageFix"/>
<feColorMatrix in="SourceAlpha" type="matrix" values="0 0 0 0 0 0 0 0 0 0 0 0 0 0 0 0 0 0 127 0" result="hardAlpha"/>
<feOffset dy="4"/>
<feGaussianBlur stdDeviation="2"/>
<feComposite in2="hardAlpha" operator="out"/>
<feColorMatrix type="matrix" values="0 0 0 0 0 0 0 0 0 0 0 0 0 0 0 0 0 0 0.25 0"/>
<feBlend mode="normal" in2="BackgroundImageFix" result="effect1_dropShadow_1637_1962"/>
<feColorMatrix in="SourceAlpha" type="matrix" values="0 0 0 0 0 0 0 0 0 0 0 0 0 0 0 0 0 0 127 0" result="hardAlpha"/>
<feOffset dy="4"/>
<feGaussianBlur stdDeviation="2"/>
<feComposite in2="hardAlpha" operator="out"/>
<feColorMatrix type="matrix" values="0 0 0 0 0 0 0 0 0 0 0 0 0 0 0 0 0 0 0.25 0"/>
<feBlend mode="normal" in2="effect1_dropShadow_1637_1962" result="effect2_dropShadow_1637_1962"/>
<feBlend mode="normal" in="SourceGraphic" in2="effect2_dropShadow_1637_1962" result="shape"/>
</filter>
</defs>
</svg>
