<svg width="18" height="18" viewBox="0 0 18 18" fill="none" xmlns="http://www.w3.org/2000/svg">
<path d="M5.99805 12.0033L12.0041 5.99772M3.74513 8.24943L2.24389 9.75057C1.84953 10.1449 1.5367 10.613 1.32328 11.1283C1.10985 11.6435 1 12.1957 1 12.7534C1 13.3111 1.10985 13.8633 1.32328 14.3785C1.5367 14.8937 1.84953 15.3619 2.24389 15.7562C2.63825 16.1505 3.10642 16.4633 3.62168 16.6767C4.13694 16.8902 4.68919 17 5.2469 17C5.80461 17 6.35686 16.8902 6.87212 16.6767C7.38738 16.4633 7.85555 16.1505 8.24991 15.7562L9.74903 14.2551M8.24885 3.74495L9.75009 2.24381C10.1445 1.84947 10.6126 1.53667 11.1279 1.32325C11.6431 1.10984 12.1954 1 12.7531 1C13.3108 1 13.8631 1.10984 14.3783 1.32325C14.8936 1.53667 15.3618 1.84947 15.7561 2.24381C16.1505 2.63814 16.4633 3.10628 16.6767 3.62151C16.8902 4.13673 17 4.68894 17 5.24662C17 5.80429 16.8902 6.35651 16.6767 6.87173C16.4633 7.38695 16.1505 7.8551 15.7561 8.24943L14.2549 9.75057" stroke="#F9FBFC" stroke-width="2" stroke-linecap="round" stroke-linejoin="round"/>
</svg>
