<svg width="20" height="14" viewBox="0 0 20 14" fill="none" xmlns="http://www.w3.org/2000/svg">
<path d="M12.75 4.75L17.303 2.474C17.4554 2.39784 17.6248 2.36188 17.795 2.36955C17.9652 2.37721 18.1306 2.42825 18.2756 2.51781C18.4206 2.60736 18.5402 2.73248 18.6233 2.88127C18.7063 3.03007 18.7499 3.19761 18.75 3.368V10.132C18.7499 10.3024 18.7063 10.4699 18.6233 10.6187C18.5402 10.7675 18.4206 10.8926 18.2756 10.9822C18.1306 11.0718 17.9652 11.1228 17.795 11.1305C17.6248 11.1381 17.4554 11.1022 17.303 11.026L12.75 8.75M2.75 12.75H10.75C11.2804 12.75 11.7891 12.5393 12.1642 12.1642C12.5393 11.7891 12.75 11.2804 12.75 10.75V2.75C12.75 2.21957 12.5393 1.71086 12.1642 1.33579C11.7891 0.960714 11.2804 0.75 10.75 0.75H2.75C2.21957 0.75 1.71086 0.960714 1.33579 1.33579C0.960714 1.71086 0.75 2.21957 0.75 2.75V10.75C0.75 11.2804 0.960714 11.7891 1.33579 12.1642C1.71086 12.5393 2.21957 12.75 2.75 12.75Z" stroke="#F9FBFC" stroke-width="1.5" stroke-linecap="round" stroke-linejoin="round"/>
</svg>
