<svg width="14" height="14" viewBox="0 0 14 14" fill="none" xmlns="http://www.w3.org/2000/svg">
<path d="M8.66772 14C9.18403 14 9.55643 13.6185 9.55643 13.1074V0.938477C9.55643 0.427409 9.18403 0 8.65216 0C8.28008 0 8.03699 0.183268 7.62699 0.549479L4.05658 3.73079C4.0112 3.77637 3.94282 3.79948 3.86665 3.79948H1.61083C0.531867 3.79948 0 4.34115 0 5.49316V8.52995C0 9.68229 0.531867 10.2236 1.61083 10.2236H3.86665C3.94282 10.2236 4.01088 10.2464 4.05658 10.2923L7.62699 13.5046C7.99907 13.8398 8.29564 14 8.66772 14ZM8.2266 12.3906C8.18868 12.3906 8.14298 12.3678 8.0976 12.3219L4.73235 9.27767C4.5502 9.1097 4.39819 9.07161 4.19303 9.07161H1.66334C1.3671 9.07161 1.22255 8.93425 1.22255 8.62891V5.39421C1.22255 5.09668 1.3671 4.95182 1.66334 4.95182H4.19303C4.39819 4.95182 4.54242 4.92122 4.73235 4.74577L8.0976 1.67871C8.13552 1.64844 8.18122 1.61784 8.2266 1.61784C8.29499 1.61784 8.33291 1.66341 8.33291 1.72461V12.276C8.33291 12.3447 8.29499 12.3906 8.2266 12.3906ZM12.1996 10.3841C12.4579 10.5671 12.83 10.5059 13.0504 10.2083C13.6428 9.40755 14 8.23242 14 7.0345C14 5.83659 13.6354 4.6696 13.0504 3.85319C12.83 3.55566 12.4653 3.49447 12.1996 3.67741C11.8654 3.89876 11.8275 4.28809 12.0706 4.6237C12.511 5.21875 12.7771 6.12663 12.7771 7.0345C12.7771 7.94271 12.4958 8.85058 12.0628 9.45312C11.8349 9.78125 11.8729 10.1549 12.1996 10.3841Z" fill="#F9FBFC"/>
</svg>
